<svg version="1.1" id="Layer_1" xmlns="http://www.w3.org/2000/svg" xmlns:xlink="http://www.w3.org/1999/xlink" x="0px" y="0px"
	 width="100%" viewBox="0 0 702 330" enable-background="new 0 0 702 330" xml:space="preserve">
<path fill="#FEFDFD" opacity="1.000000" stroke="none" 
	d="
M1.000000,327.000000 
	C1.000000,300.979095 1.000000,274.958221 1.399675,248.563049 
	C13.018059,250.551285 14.607649,249.664200 17.994789,239.139893 
	C18.402615,237.872711 18.898436,236.621521 19.166880,235.324310 
	C19.763880,232.439362 21.249815,231.240555 24.374136,231.415558 
	C29.356936,231.694626 34.366844,231.489441 39.365288,231.489365 
	C48.860733,231.489212 48.860725,231.489334 51.802834,240.507233 
	C54.543251,248.906906 54.543259,248.906891 63.024487,248.862701 
	C70.535431,248.823563 70.864204,248.383484 68.351456,241.107864 
	C61.887383,222.391235 55.383213,203.688477 48.908169,184.975632 
	C44.616428,172.572540 44.628605,172.693344 31.530577,172.909912 
	C27.407324,172.978088 25.275415,174.463318 23.934959,178.440643 
	C17.346361,197.990036 10.518419,217.459045 3.699233,236.929901 
	C3.073701,238.715973 1.912475,240.314423 1.000000,242.000000 
	C1.000000,161.733765 1.000000,81.467529 1.000000,1.000000 
	C95.020798,1.000000 189.041748,1.000000 283.410034,1.319676 
	C278.577393,4.185686 276.534058,8.107899 276.669800,14.081910 
	C277.036530,30.223980 276.795227,46.379864 276.795197,62.530266 
	C276.795197,64.305443 276.795197,66.080627 276.795197,69.366615 
	C280.314087,67.813454 283.114166,67.239014 285.041656,65.623482 
	C302.394226,51.079361 319.582672,36.339489 336.859528,21.704588 
	C338.214264,20.557001 339.850403,18.983181 341.392975,18.940107 
	C350.669586,18.681072 359.957062,18.811480 369.963684,18.811480 
	C369.963684,38.776917 369.963684,58.287533 369.963684,77.795929 
	C387.430237,77.795929 404.163147,77.795929 421.299927,77.795929 
	C421.299927,75.667259 421.299927,73.866150 421.299927,72.065048 
	C421.299957,54.083157 420.954987,36.091736 421.451538,18.123566 
	C421.685577,9.654563 418.604492,4.196854 411.000000,1.000000 
	C506.687561,1.000000 602.375122,1.000000 698.531250,1.468657 
	C698.999817,74.812630 699.001099,147.687943 698.992981,220.563263 
	C698.992737,222.723099 698.893799,224.882935 698.536438,226.892075 
	C695.200745,218.710266 687.815552,216.613098 680.850586,213.839569 
	C677.223816,212.395325 672.391052,211.170471 673.910339,205.816452 
	C675.351257,200.738831 680.152161,201.718506 684.050232,202.074585 
	C686.153992,202.266754 688.199829,203.212723 690.243652,203.901886 
	C691.744019,204.407806 693.198792,205.049011 694.668213,205.627701 
	C697.762817,197.741226 696.311157,193.758011 689.101318,192.631821 
	C683.497681,191.756546 677.474426,191.733093 671.923401,192.807358 
	C664.530396,194.238068 660.348145,199.702286 659.777039,206.254440 
	C659.094299,214.087769 661.873901,219.261353 669.047485,222.860352 
	C672.904541,224.795395 677.176208,225.989731 680.812439,228.242020 
	C682.544922,229.315170 684.379822,232.278778 684.075500,234.020386 
	C683.756042,235.848709 680.952881,238.537338 679.198853,238.565262 
	C674.855347,238.634430 670.463074,237.532272 666.148315,236.625275 
	C664.306946,236.238220 662.610046,235.164276 660.849243,234.403229 
	C657.562561,242.075912 659.259521,246.042847 666.325745,248.308273 
	C680.130005,252.733902 691.524475,248.770309 698.905273,237.463226 
	C698.972168,267.521301 698.972168,297.114868 698.972168,326.999847 
	C696.867920,326.999847 695.233398,326.999847 693.598938,326.999847 
	C656.614929,326.999847 619.630920,327.012299 582.646912,326.989777 
	C574.822266,326.985016 566.997803,326.852325 559.200928,326.555237 
	C559.228638,326.331940 558.961060,325.970123 559.058228,325.534607 
	C559.155396,322.485443 559.155396,319.871796 559.155396,316.826477 
	C560.237122,317.200592 560.863220,317.314117 561.382446,317.613220 
	C565.070618,319.737396 568.541443,319.190063 571.377869,316.274353 
	C575.268494,312.274902 575.871277,307.075348 573.672607,302.397034 
	C572.403564,299.696808 569.092712,296.822784 566.260559,296.265808 
	C562.362732,295.499268 558.048401,296.850708 553.781555,297.308838 
	C553.781555,306.812347 553.781555,316.538483 553.719727,326.354919 
	C553.657959,326.445190 553.763916,326.636658 553.324829,326.759796 
	C551.721680,326.921906 550.557678,326.994965 549.393616,326.994995 
	C400.503479,327.000000 251.613327,326.999634 102.723183,326.999512 
	C101.512337,326.999512 100.301491,326.999512 99.492371,326.999512 
	C106.921043,317.453979 101.895508,306.849213 104.123192,295.764404 
	C98.935570,298.261993 94.965584,296.290985 90.974693,296.268555 
	C88.593529,296.255157 85.494965,298.620819 83.956100,300.793365 
	C81.003059,304.962433 82.059250,312.348358 85.393066,315.697052 
	C89.293114,319.614471 93.439682,318.476074 98.039757,316.139984 
	C97.585678,318.385773 97.157310,321.238434 95.684479,321.960419 
	C94.174294,322.700653 91.644073,321.347931 89.557152,320.926819 
	C87.517555,320.515259 85.473984,320.123383 83.432167,319.722839 
	C83.152122,320.081970 82.872086,320.441071 82.592049,320.800201 
	C83.955109,322.813843 85.318161,324.827515 86.788742,327.000000 
	C58.212570,327.000000 29.606285,327.000000 1.000000,327.000000 
M620.735535,301.450897 
	C620.922607,305.568970 620.939270,309.703857 621.344360,313.800385 
	C621.755005,317.952759 626.109558,320.276947 629.769653,318.414093 
	C630.465576,318.059906 631.176208,317.020050 631.205750,316.270020 
	C631.235901,315.504395 630.632446,314.399200 629.966797,313.972290 
	C625.907593,311.369415 625.860840,303.773529 629.752563,300.886902 
	C630.549988,300.295410 630.403381,298.431244 630.691956,297.153748 
	C625.876282,296.496094 627.421143,292.443665 626.619385,288.712250 
	C624.473022,291.029602 620.239502,290.502930 620.788879,295.785736 
	C615.405640,296.198273 610.022461,296.610809 604.673462,297.020721 
	C604.673462,304.130005 604.673462,311.027496 604.673462,318.330750 
	C606.718079,318.212067 608.430115,318.112701 610.352234,318.001160 
	C610.352234,315.001984 610.313538,312.523224 610.359314,310.046021 
	C610.516968,301.510101 611.232544,300.847107 620.735535,301.450897 
M326.881653,53.392403 
	C314.888153,63.451511 303.224854,73.945625 290.771301,83.398651 
	C283.839417,88.660378 280.753143,94.244743 281.599945,103.013969 
	C282.438171,111.694374 285.463470,115.867172 294.347748,115.896118 
	C333.649628,116.024132 372.952209,115.981171 412.254456,115.925461 
	C417.416656,115.918144 421.954315,112.387993 422.599335,107.515724 
	C423.131195,103.498306 422.707916,99.354454 422.707916,94.909698 
	C398.015869,94.909698 373.783356,94.909698 348.926422,94.909698 
	C348.926422,75.067497 348.926422,55.582367 348.926422,35.987591 
	C347.981781,36.161865 347.581940,36.115040 347.368683,36.292477 
	C340.712555,41.830460 334.074615,47.390320 326.881653,53.392403 
M452.593597,211.321640 
	C452.278778,209.031647 451.963989,206.741653 451.645752,204.449081 
	C451.935883,204.291336 452.238617,203.976944 452.514282,203.999115 
	C457.518280,204.401535 458.733612,201.693573 458.561279,197.249298 
	C458.365082,192.188110 455.040314,192.474716 451.589294,192.573624 
	C449.425842,192.635651 447.257751,192.636047 445.094238,192.575470 
	C438.635071,192.394638 432.053711,191.275421 425.743988,192.145844 
	C411.906586,194.054688 405.407898,207.863480 411.868500,220.109451 
	C412.467163,221.244217 413.062195,223.304504 412.503265,223.982834 
	C407.182922,230.439987 406.588104,236.750793 412.770538,242.950119 
	C411.793213,244.002213 411.102325,244.713257 410.447327,245.455933 
	C402.722412,254.214981 405.282135,264.315765 416.399170,267.723083 
	C426.187531,270.723083 436.117706,270.750763 445.818512,267.074371 
	C451.952515,264.749725 456.307739,260.622467 457.542206,253.909348 
	C459.324677,244.216507 453.019989,237.171158 441.494324,236.119354 
	C436.194092,235.635696 430.845703,235.688675 425.541382,235.237152 
	C422.780792,235.002136 420.681000,233.581238 421.388763,230.297089 
	C422.144196,226.791870 424.502319,228.397629 426.494385,228.864166 
	C439.906586,232.005219 450.529480,225.193405 452.593597,211.321640 
M147.891830,193.121857 
	C141.837906,195.828827 138.278122,200.740891 136.347931,206.822388 
	C133.403076,216.100967 133.279556,225.536621 136.143127,234.842163 
	C140.650009,249.487946 156.103119,254.479874 168.566879,245.467636 
	C170.114883,244.348312 171.605682,243.149887 173.306931,241.847244 
	C174.483673,248.845535 175.319061,249.331772 182.088913,248.872406 
	C188.036087,248.468842 186.044708,244.058655 186.062820,241.041321 
	C186.196808,218.738876 186.141159,196.435272 186.130936,174.132019 
	C186.128250,168.247772 185.546097,167.751175 178.954010,167.756317 
	C172.351990,167.761490 171.781158,168.252975 171.767303,174.141968 
	C171.749512,181.701721 171.762970,189.261551 171.762970,197.195557 
	C159.307144,190.592300 157.358063,190.246826 147.891830,193.121857 
M573.716614,244.823792 
	C573.716614,242.009369 573.716614,239.194962 573.716614,236.075500 
	C570.557190,236.639740 568.783142,237.088577 566.983398,237.248322 
	C563.962891,237.516418 561.205750,236.325790 561.101929,233.202164 
	C560.790039,223.821899 560.989624,214.424622 560.989624,205.103180 
	C568.644714,205.103180 575.877441,205.103180 583.465942,205.103180 
	C583.465942,216.984879 583.465576,228.460571 583.466064,239.936249 
	C583.466492,248.908768 584.074646,249.357803 593.114136,248.889954 
	C596.974365,248.690170 598.205322,247.066315 598.159607,243.269684 
	C597.987305,228.945145 598.097046,214.617279 598.088135,200.290665 
	C598.083618,192.967361 597.850525,192.736801 590.487244,192.728455 
	C580.697083,192.717346 570.906921,192.725708 560.537354,192.725708 
	C560.537354,189.700058 560.318481,187.216736 560.583862,184.786285 
	C561.105103,180.012238 558.719971,178.483749 554.428711,178.712738 
	C553.099304,178.783676 551.764526,178.764084 550.432190,178.766800 
	C547.153809,178.773483 545.547424,180.205551 545.786133,183.679474 
	C545.984863,186.572205 545.826843,189.489441 545.826843,192.272995 
	C537.627136,193.198914 537.806274,193.298737 537.201782,197.505402 
	C536.240173,204.196091 540.240295,205.340012 545.827515,204.818680 
	C545.827515,213.445557 545.719910,221.419006 545.877441,229.387238 
	C545.946045,232.856720 546.169128,236.413559 547.010925,239.757294 
	C548.472839,245.564163 552.747437,248.763474 558.526001,249.331726 
	C563.832947,249.853592 569.595215,251.140839 573.716614,244.823792 
M393.743500,198.764709 
	C384.366150,190.041779 373.294464,189.758743 361.982574,193.192017 
	C352.071381,196.200180 346.949951,203.963318 345.567841,213.879608 
	C344.866211,218.913849 344.876007,224.231186 345.655396,229.251114 
	C347.503113,241.152328 354.466858,247.587952 366.448090,249.489105 
	C379.451904,251.552551 391.426636,247.072327 396.215729,237.193237 
	C402.406128,224.423523 402.379486,211.540573 393.743500,198.764709 
M119.144798,248.818344 
	C122.386536,248.764801 122.759560,246.653870 122.746201,244.046951 
	C122.689865,233.055984 122.897835,222.060669 122.662399,211.074387 
	C122.388206,198.280151 116.913109,192.617172 104.170868,191.510071 
	C101.528976,191.280533 98.745476,191.005814 96.210793,191.572662 
	C91.218391,192.689133 86.201866,194.011047 81.488670,195.958084 
	C78.052216,197.377701 77.018967,202.774597 79.045197,205.988266 
	C81.403076,209.727905 83.627068,206.205368 85.883942,205.673874 
	C90.054321,204.691727 94.172539,202.990433 98.377213,202.757660 
	C106.537193,202.305908 109.508629,206.648285 107.569405,214.173889 
	C99.958466,215.504578 92.437332,216.108124 85.383125,218.249710 
	C78.093155,220.462860 74.795601,226.867615 75.438431,234.328751 
	C76.097618,241.979752 80.283844,247.006042 87.601021,248.973984 
	C95.773911,251.172058 103.059013,249.340302 109.946442,243.579865 
	C110.243736,249.930725 114.567848,248.830200 119.144798,248.818344 
M325.477295,248.616669 
	C327.976715,248.616653 330.476135,248.620605 332.975555,248.615875 
	C339.401886,248.603714 340.062744,247.989975 340.059082,242.054489 
	C340.055573,236.356735 339.523987,235.867645 333.255920,235.861160 
	C326.998901,235.854691 320.741913,235.859741 314.109375,235.859741 
	C314.109375,233.224304 314.109406,231.416519 314.109375,229.608734 
	C314.109161,212.779297 313.942322,195.947159 314.215363,179.122147 
	C314.292175,174.388550 312.470703,172.776520 308.154358,172.963287 
	C306.657288,173.028061 305.156738,173.032349 303.657806,173.029800 
	C300.147095,173.023834 298.746460,174.570847 298.770081,178.253983 
	C298.906830,199.581512 298.911774,220.910782 298.782318,242.238403 
	C298.752777,247.105621 300.985260,248.737198 305.489044,248.646790 
	C311.818359,248.519730 318.152130,248.615753 325.477295,248.616669 
M224.022522,200.242874 
	C223.810562,206.280228 228.944366,204.073975 232.134933,205.119446 
	C232.217239,206.924438 232.349167,208.551346 232.355698,210.178741 
	C232.385132,217.499176 232.176422,224.826782 232.430099,232.138748 
	C232.882111,245.168243 239.823761,251.141785 252.360840,249.627350 
	C260.486786,248.645767 262.838043,244.130356 259.138794,236.245148 
	C257.587769,236.564545 255.999405,236.991699 254.382828,237.204803 
	C250.382401,237.732162 247.564377,235.953568 247.429169,231.960480 
	C247.127167,223.041428 247.334793,214.105133 247.334793,204.701569 
	C250.517303,204.701569 253.318924,204.583160 256.106842,204.728241 
	C260.742676,204.969482 260.613220,201.655884 260.611145,198.669556 
	C260.609100,195.732208 260.934845,192.330368 256.224945,192.556412 
	C253.319275,192.695862 250.401459,192.582245 247.105942,192.582245 
	C247.105942,189.433624 246.858673,187.096130 247.157486,184.830643 
	C247.777069,180.133163 245.532455,178.445343 241.220383,178.571381 
	C239.890915,178.610245 238.561020,178.634506 237.231430,178.669601 
	C233.824265,178.759521 231.999405,180.178986 232.321121,183.916656 
	C232.556656,186.652908 232.367279,189.425720 232.367279,192.696625 
	C226.341095,191.707581 223.016312,193.279495 224.022522,200.242874 
M494.413452,236.475632 
	C494.203888,240.583847 493.102570,245.056168 498.270355,247.177658 
	C506.806641,250.682007 515.437927,251.046158 523.960815,247.278595 
	C530.350220,244.454132 533.544312,239.309525 533.769531,232.322632 
	C533.993835,225.364822 530.630737,220.571335 524.593201,217.600311 
	C521.169922,215.915756 517.527832,214.681763 514.028137,213.145050 
	C510.897705,211.770508 507.598969,210.177826 508.703461,205.927536 
	C509.777649,201.793839 513.488586,201.592484 516.832458,201.934097 
	C519.761292,202.233322 522.625854,203.254242 525.489380,204.060883 
	C526.861938,204.447510 528.166443,205.075775 529.480286,205.586304 
	C532.770874,198.099228 531.254822,193.644638 524.095093,192.686691 
	C517.862305,191.852768 511.171295,192.062927 505.048340,193.438721 
	C498.538757,194.901398 494.974854,200.261337 494.476929,207.089111 
	C493.962646,214.140854 497.053589,219.358093 503.312683,222.521515 
	C507.014618,224.392563 510.933594,225.829742 514.719238,227.541107 
	C517.630249,228.857086 520.549744,231.017944 518.956482,234.279739 
	C517.901123,236.440262 514.558350,238.813049 512.288452,238.765350 
	C507.973022,238.674622 503.711609,236.828384 499.387360,235.899384 
	C497.865540,235.572418 496.225281,235.796600 494.413452,236.475632 
M651.658386,203.974121 
	C651.658875,196.479340 650.400452,194.762558 643.263550,192.521286 
	C628.460632,187.872589 614.348267,195.513245 610.932495,210.600677 
	C609.741760,215.860336 609.520447,221.546463 609.992981,226.938217 
	C611.644836,245.787186 628.095825,255.154037 645.562378,247.540939 
	C652.221069,244.638611 653.971191,238.978073 650.100281,231.666245 
	C647.720764,233.075974 645.419434,234.638947 642.950928,235.865356 
	C634.696228,239.966461 627.081604,236.650146 625.484131,227.678909 
	C624.629639,222.879684 624.681213,217.649323 625.607544,212.861923 
	C627.267273,204.284561 634.348511,201.127228 642.386536,204.759644 
	C644.775513,205.839264 646.978943,207.329559 649.840942,208.958038 
	C650.518860,207.327301 651.054932,206.037811 651.658386,203.974121 
M482.840942,198.813324 
	C482.706726,192.817352 482.011963,192.221878 475.215210,192.277237 
	C468.836853,192.329208 468.137024,192.960144 468.132507,198.850143 
	C468.121216,213.644516 468.348907,228.443710 468.024323,243.230942 
	C467.889618,249.366745 471.662109,248.845749 475.529388,248.878357 
	C479.486084,248.911728 483.092651,249.186127 482.950104,243.132889 
	C482.609802,228.678986 482.840637,214.211639 482.840942,198.813324 
M215.354813,208.504562 
	C215.354584,205.014648 215.379684,201.524521 215.348145,198.034897 
	C215.302017,192.929642 214.439026,192.228668 207.998230,192.326508 
	C204.300354,192.382675 200.718765,192.093246 200.831192,197.870682 
	C201.125351,212.987869 201.144760,228.119156 200.820480,243.235107 
	C200.698608,248.915558 203.961212,248.935364 207.812851,248.842636 
	C211.535141,248.753052 215.634552,249.695587 215.448380,243.401718 
	C215.114395,232.110977 215.354767,220.803253 215.354813,208.504562 
M211.141876,305.557434 
	C211.141876,309.657715 211.141876,313.757996 211.141876,317.910278 
	C213.414520,317.910278 215.145279,317.910278 216.950790,317.910278 
	C217.003632,316.750854 216.995407,315.919312 217.086349,315.098755 
	C217.715836,309.418884 214.230301,301.762695 224.091949,300.438171 
	C224.352264,300.403168 224.457184,299.211243 224.634567,298.558868 
	C227.380508,304.479340 229.068451,309.511627 230.566025,314.599945 
	C231.226532,316.844086 231.969437,319.095093 234.750153,318.124390 
	C236.189041,317.622070 237.570145,315.996552 238.264908,314.538910 
	C239.379349,312.200775 239.902206,309.580688 240.675064,307.079742 
	C242.510468,310.176086 243.100922,313.121735 244.192825,315.867950 
	C244.603119,316.899902 246.199265,318.120209 247.215454,318.086029 
	C248.514633,318.042328 250.546616,317.096466 250.923752,316.054688 
	C253.171387,309.845764 255.032898,303.497009 257.086884,296.996338 
	C253.422226,295.889008 251.075867,296.222412 250.312866,300.319885 
	C249.855133,302.778137 248.810638,305.127106 247.809464,308.202148 
	C243.844543,303.766724 247.592651,295.040741 238.482468,296.722290 
	C237.155029,300.587952 235.905640,304.226349 234.216446,309.145477 
	C233.058060,305.170135 232.389572,302.317444 231.360001,299.601685 
	C230.911469,298.418488 229.761536,296.666046 228.862747,296.624329 
	C223.053986,296.354767 217.226593,296.486298 211.141891,296.486298 
	C211.141891,299.647278 211.141891,302.121033 211.141876,305.557434 
M414.448975,301.631531 
	C414.798309,301.278381 415.116028,300.885498 415.501953,300.578308 
	C418.857147,297.907440 420.653717,294.785126 417.932343,290.708588 
	C415.778564,287.482330 409.248047,286.540802 405.670471,288.916382 
	C401.581848,291.631317 401.917877,295.142792 404.173065,298.887451 
	C404.495117,299.422180 404.733215,300.007446 404.653992,299.846680 
	C402.535828,303.003265 399.892639,305.453735 399.114014,308.397400 
	C397.208099,315.603058 405.407288,321.241577 413.515411,318.094269 
	C417.040344,316.726013 419.845795,316.090637 422.932953,319.199524 
	C424.245789,317.476868 425.291901,316.104218 426.307251,314.771912 
	C424.696350,313.386841 423.464691,312.327850 422.291107,311.318817 
	C422.974701,309.231598 423.578613,307.387634 424.563477,304.380585 
	C421.580902,304.719971 419.367798,304.971802 416.590851,305.287781 
	C416.259918,304.832489 415.386230,303.630463 414.448975,301.631531 
M298.592468,307.429260 
	C299.335999,314.482086 302.107056,318.666382 306.888062,318.721832 
	C311.085358,318.770538 315.293701,317.868622 319.604553,317.374237 
	C319.604553,307.944885 319.604553,298.225372 319.604553,288.337402 
	C317.705292,288.337402 316.129211,288.337402 314.244843,288.337402 
	C314.091400,291.483246 313.949799,294.386230 313.805756,297.339447 
	C303.692657,294.471527 299.812897,296.898438 298.592468,307.429260 
M167.460739,305.820648 
	C171.221069,305.820648 174.981400,305.820648 178.793686,305.820648 
	C178.793686,303.566376 178.793686,302.146851 178.793686,300.137756 
	C174.627350,300.137756 170.724686,300.137756 166.824173,300.137756 
	C166.824173,297.637695 166.824173,295.733337 166.824173,293.232056 
	C171.697586,293.232056 176.246078,293.232056 181.101669,293.232056 
	C180.961548,291.207428 180.864594,289.806549 180.766449,288.388641 
	C173.830841,288.388641 167.268417,288.388641 160.523193,288.388641 
	C160.523193,298.426910 160.523193,308.134369 160.523193,318.020874 
	C162.552307,318.020874 164.303177,318.020874 166.686066,318.020874 
	C166.686066,314.003571 166.686066,310.218781 167.460739,305.820648 
M109.097816,300.516296 
	C109.097816,306.282745 109.097816,312.049225 109.097816,317.952698 
	C111.320633,317.952698 113.067215,317.952698 115.066612,317.952698 
	C115.066612,313.678833 115.018593,309.695618 115.082108,305.714142 
	C115.131142,302.640594 116.599617,300.126587 119.782524,300.751709 
	C121.152603,301.020813 122.722839,303.864990 122.937561,305.688263 
	C123.412125,309.717957 123.085167,313.842072 123.085167,317.882141 
	C125.424393,317.882141 127.145691,317.882141 129.025894,317.882141 
	C129.025894,313.366699 129.028152,309.213837 129.023590,305.060974 
	C129.022858,304.396027 129.030197,303.727509 128.968460,303.066772 
	C128.439926,297.409668 124.101280,294.585938 118.756668,296.447845 
	C117.592110,296.853577 116.484131,297.421692 114.754776,298.173981 
	C114.754776,294.480743 114.754776,291.394836 114.754776,288.030457 
	C112.700859,288.145020 111.111328,288.233704 109.097816,288.346008 
	C109.097816,292.274750 109.097816,295.901062 109.097816,300.516296 
M13.041063,313.283447 
	C13.041063,310.832947 13.041063,308.382446 13.041063,305.450989 
	C17.439230,305.450989 21.342739,305.450989 25.597517,305.450989 
	C25.495428,303.537842 25.420370,302.131256 25.317345,300.200562 
	C21.096735,300.200562 17.209518,300.200562 13.388540,300.200562 
	C13.388540,297.603058 13.388540,295.557678 13.388540,293.193237 
	C18.177362,293.193237 22.623514,293.193237 27.547127,293.193237 
	C27.448492,291.314087 27.368374,289.787750 27.289959,288.293854 
	C20.307623,288.293854 13.882240,288.293854 7.260557,288.293854 
	C7.260557,298.338867 7.260557,308.170135 7.260557,317.956268 
	C9.344864,317.956268 11.094029,317.956268 13.040901,317.956268 
	C13.040901,316.509552 13.040901,315.352722 13.041063,313.283447 
M493.339386,316.890961 
	C495.369293,317.421570 497.399231,317.952179 499.114441,318.400513 
	C499.114441,313.261627 498.999542,308.964600 499.145844,304.676422 
	C499.300720,300.138336 498.003510,296.860229 492.995148,296.031219 
	C486.734985,294.994965 482.924530,296.732941 480.460815,302.885437 
	C482.937408,302.392578 484.742615,301.959717 486.571869,301.689941 
	C488.411804,301.418518 490.277313,301.202057 492.127594,301.229767 
	C492.453308,301.234619 492.759277,302.558441 493.074402,303.273163 
	C491.626556,303.905426 490.208282,304.621918 488.721741,305.144043 
	C487.475464,305.581787 486.117828,305.698853 484.864929,306.122101 
	C481.275330,307.334656 479.195953,309.715546 480.022095,313.653809 
	C480.842773,317.566071 483.832245,318.995422 487.469116,318.786560 
	C489.201111,318.687134 490.880463,317.670502 493.339386,316.890961 
M590.235474,295.947754 
	C582.992004,296.122375 579.014648,299.061523 577.938660,305.034698 
	C576.881409,310.903564 579.569397,316.105377 584.647583,318.017914 
	C590.928894,320.383514 597.622742,317.377899 599.636047,311.287933 
	C601.926758,304.359192 598.671265,298.567535 590.235474,295.947754 
M514.264282,296.420471 
	C511.167603,296.659943 508.070892,296.899414 504.903442,297.144379 
	C504.903442,304.042908 504.903442,310.935455 504.903442,318.002808 
	C506.788177,318.002808 508.391785,318.002808 510.604828,318.002808 
	C510.604828,313.670593 510.148285,309.478363 510.809631,305.470581 
	C511.111633,303.640381 513.618042,302.173950 515.124634,300.542542 
	C516.287109,302.230408 518.226746,303.820557 518.453796,305.626068 
	C518.960449,309.653809 518.612061,313.789124 518.612061,317.987457 
	C520.863586,317.987457 522.465515,317.987457 524.493896,317.987457 
	C524.493896,313.458710 524.551025,309.161438 524.481018,304.866302 
	C524.364929,297.747864 522.210144,295.796661 514.264282,296.420471 
M534.991394,312.988617 
	C532.934631,312.480103 530.877808,311.971588 527.870056,311.227936 
	C530.924500,317.485748 534.203064,319.347778 539.772888,318.844849 
	C544.034241,318.459991 547.818298,316.977600 548.435791,312.163422 
	C549.081482,307.129150 545.191650,305.886871 541.352112,304.789856 
	C539.024597,304.124847 536.755371,303.255890 534.459961,302.478577 
	C534.645020,301.757507 534.830078,301.036407 535.015137,300.315338 
	C539.075500,300.957855 543.135864,301.600372 548.034607,302.375549 
	C545.694214,296.133484 541.470154,295.743591 537.037109,295.946625 
	C533.081909,296.127777 529.665710,297.463440 529.109619,301.940887 
	C528.567749,306.304199 531.589355,308.042847 535.229492,309.105927 
	C537.761292,309.845337 540.255005,310.715302 542.765747,311.526917 
	C542.642944,312.333771 542.520081,313.140625 542.397278,313.947479 
	C540.107056,313.830109 537.816833,313.712708 534.991394,312.988617 
M264.466370,296.524719 
	C262.742432,298.003479 261.018494,299.482269 259.294525,300.961029 
	C259.624969,301.623413 259.955414,302.285828 260.285828,302.948212 
	C262.179413,302.380646 264.041809,301.628998 265.976013,301.301025 
	C267.666595,301.014374 269.452423,301.081970 271.161926,301.283508 
	C271.520020,301.325714 272.065582,303.210785 271.953979,303.276459 
	C270.735168,303.993469 269.436249,304.617554 268.092194,305.066559 
	C266.679657,305.538513 265.163055,305.696960 263.746979,306.160522 
	C260.089508,307.357880 258.200653,309.830109 259.001709,313.747192 
	C259.762756,317.468781 262.612885,318.922760 266.019897,318.802429 
	C270.173523,318.655792 274.308167,317.972015 278.040161,317.565338 
	C278.040161,313.032166 278.139038,308.250885 278.013275,303.475494 
	C277.878235,298.349396 275.852234,296.299713 270.708466,295.977325 
	C268.900818,295.864044 267.069214,296.132294 264.466370,296.524719 
M364.926880,315.708527 
	C368.468964,316.730927 371.994873,318.500732 375.557373,318.577698 
	C379.585052,318.664703 382.970795,316.371002 383.252167,311.665100 
	C383.524353,307.113647 380.068115,305.956635 376.611481,304.894196 
	C374.137177,304.133728 371.685852,303.298553 369.224243,302.496704 
	C369.412750,301.767548 369.601227,301.038361 369.789703,300.309204 
	C373.858612,300.951904 377.927521,301.594604 382.640411,302.339050 
	C380.800293,296.441528 376.932861,295.871216 372.789917,295.921692 
	C368.738983,295.971039 364.873383,296.796539 364.001404,301.516357 
	C363.083527,306.484711 366.627258,308.119995 370.590363,309.260284 
	C372.947601,309.938538 375.238770,310.846375 377.559662,311.651001 
	C377.426880,312.441528 377.294098,313.232086 377.161316,314.022644 
	C374.870514,313.855591 372.531006,313.921448 370.302612,313.455811 
	C368.089355,312.993317 365.987823,311.996124 363.837280,311.233398 
	C363.626801,311.684906 363.416321,312.136414 363.205872,312.587921 
	C363.624298,313.442902 364.042725,314.297882 364.926880,315.708527 
M448.577576,288.070129 
	C445.799713,288.070129 443.021820,288.070129 439.745636,288.070129 
	C439.848236,290.098511 439.924408,291.604492 440.000732,293.113525 
	C443.137665,293.305573 445.706085,293.462830 448.668060,293.644135 
	C448.668060,302.053345 448.668060,309.951111 448.668060,317.990143 
	C450.867065,317.990143 452.617798,317.990143 454.964050,317.990143 
	C454.964050,309.715454 454.964050,301.691986 454.964050,293.566162 
	C458.126587,293.381104 460.701508,293.230438 463.609406,293.060272 
	C463.484283,291.225250 463.388489,289.819824 463.269196,288.070129 
	C458.458771,288.070129 454.003693,288.070129 448.577576,288.070129 
M692.344116,313.693756 
	C693.965881,308.469330 690.821350,306.384094 686.609192,305.049438 
	C683.949890,304.206848 681.264526,303.446228 678.590881,302.648834 
	C678.771118,301.884247 678.951355,301.119629 679.131592,300.355042 
	C683.246155,300.947601 687.360718,301.540131 692.342468,302.257599 
	C689.187622,296.714050 686.574585,295.462769 680.918579,295.946808 
	C677.135315,296.270599 673.930359,297.619659 673.381592,301.839264 
	C672.816284,306.185730 675.705688,308.029022 679.402283,309.086578 
	C681.958069,309.817749 684.470886,310.698730 687.564148,311.693237 
	C684.614014,315.283112 682.247314,314.812439 679.458496,313.389404 
	C677.533203,312.407104 675.277283,312.072906 671.999451,311.102936 
	C676.761597,320.393097 686.329468,321.194611 692.344116,313.693756 
M648.609802,311.619385 
	C642.810974,315.653320 640.886475,315.218170 639.638611,309.009705 
	C644.272949,309.009705 648.809204,309.009705 653.317993,309.009705 
	C653.363892,300.665771 650.281250,296.438599 644.234924,295.940887 
	C638.606750,295.477631 634.517944,298.802887 633.458679,304.704865 
	C632.251648,311.430054 634.960327,316.784210 640.376648,318.379547 
	C645.997009,320.035004 650.650208,317.837921 652.698303,312.357910 
	C651.542297,312.139954 650.429626,311.930145 648.609802,311.619385 
M199.561157,296.498047 
	C191.685776,295.042572 186.316422,297.961578 184.919724,304.457703 
	C183.421677,311.425140 186.750580,317.039642 193.281189,318.560120 
	C198.811783,319.847717 204.121124,317.068237 206.168915,311.813263 
	C208.495209,305.843597 206.346588,300.331696 199.561157,296.498047 
M325.236542,300.866058 
	C324.907776,304.432800 323.885071,308.106995 324.416748,311.540497 
	C325.169678,316.402771 329.001282,318.718842 333.810913,318.830353 
	C338.231354,318.932892 341.903229,317.498596 343.682098,311.680420 
	C341.121735,312.100494 338.916443,311.906067 337.368927,312.822418 
	C333.060333,315.373718 331.024200,314.536316 330.240356,308.838989 
	C334.855408,308.838989 339.399292,308.838989 344.051788,308.838989 
	C343.988983,303.170105 342.987061,298.544769 337.513519,296.588562 
	C332.768158,294.892639 328.696198,296.074768 325.236542,300.866058 
M50.766445,298.135864 
	C46.341995,302.599335 46.019306,307.866058 48.258095,313.310455 
	C50.071747,317.720978 53.987202,319.078888 58.468182,318.820404 
	C62.902241,318.564636 65.136444,316.610748 66.422913,311.696869 
	C64.361038,312.022919 62.264118,311.804352 60.842693,312.681030 
	C56.341774,315.457031 54.228256,314.625000 53.374634,308.845093 
	C58.001011,308.845093 62.563789,308.845093 67.111137,308.845093 
	C67.022835,297.606934 60.576839,293.212830 50.766445,298.135864 
M599.104553,179.639267 
	C599.204102,178.649368 599.434875,177.652328 599.381531,176.670715 
	C599.083252,171.178055 596.666016,169.269226 590.330688,169.430191 
	C584.747803,169.572052 582.542664,171.587204 582.452026,176.820435 
	C582.391785,180.295639 582.814331,183.532867 587.041077,184.584000 
	C592.514771,185.945190 596.568970,184.565140 599.104553,179.639267 
M483.886169,179.098297 
	C483.884094,177.768677 483.973755,176.431305 483.862274,175.110931 
	C483.557953,171.506668 481.299622,169.756149 477.921173,169.567657 
	C474.157227,169.357620 470.009979,168.608063 467.813171,172.964691 
	C465.856354,176.845352 467.242004,182.615570 470.300140,184.132324 
	C475.215576,186.570221 481.610687,184.564148 483.886169,179.098297 
M210.054230,169.460052 
	C207.009598,170.353882 202.408051,170.378036 201.303482,172.355530 
	C199.830444,174.992661 199.706741,180.714844 201.486496,182.269623 
	C203.916489,184.392456 208.740692,184.536804 212.435577,184.241562 
	C216.364777,183.927597 216.658173,180.069351 216.686371,176.837357 
	C216.720673,172.906372 215.204407,170.041061 210.054230,169.460052 
M135.391785,315.602112 
	C136.979156,318.986877 139.895218,319.265350 142.984879,318.572968 
	C143.805420,318.389038 144.842926,317.199799 144.946198,316.368439 
	C145.041031,315.605011 144.028336,314.690552 143.473160,313.863068 
	C142.641541,312.623474 141.232529,311.477509 141.050888,310.156708 
	C140.672180,307.402740 140.936325,304.560394 140.936325,302.681885 
	C142.668396,300.965759 144.857895,299.452118 144.635941,298.889038 
	C144.052521,297.408997 142.419495,296.342743 141.017868,294.922424 
	C140.934082,293.364441 140.830658,291.441376 140.727234,289.518280 
	C140.241714,289.243134 139.756195,288.967987 139.270691,288.692841 
	C136.950714,291.898071 134.556244,295.054688 132.395172,298.363708 
	C132.089066,298.832428 132.875565,300.061554 133.233246,300.906128 
	C133.789658,302.219910 134.807892,303.470276 134.928192,304.810516 
	C135.224426,308.110901 135.120895,311.447205 135.391785,315.602112 
M475.821991,301.486664 
	C476.944244,300.248199 478.066498,299.009705 479.188751,297.771240 
	C478.931885,297.281464 478.675049,296.791687 478.418182,296.301910 
	C473.940430,296.510986 469.462646,296.720032 464.970856,296.929749 
	C464.970856,304.152832 464.970856,310.909790 464.970856,317.963074 
	C466.875122,317.963074 468.591064,317.963074 470.892181,317.963074 
	C470.892181,313.930908 470.761230,310.147614 470.938080,306.378754 
	C471.056763,303.849670 471.493195,301.244995 475.821991,301.486664 
M354.339050,312.242920 
	C355.067688,307.606262 351.943848,300.640320 361.251373,301.296295 
	C361.638306,299.764404 361.985840,298.388641 362.395081,296.768555 
	C357.535095,296.768555 353.115448,296.768555 348.664764,296.768555 
	C348.664764,304.081757 348.664764,310.971588 348.664764,317.924011 
	C350.678040,317.924011 352.393188,317.924011 354.337616,317.924011 
	C354.337616,316.094116 354.337616,314.613892 354.339050,312.242920 
M289.229095,308.523560 
	C289.598907,305.680389 288.847900,301.468231 292.882202,301.508209 
	C296.753357,301.546539 296.641754,299.569458 297.412476,296.267578 
	C292.419250,296.501282 287.913666,296.712128 283.408264,296.923004 
	C283.408264,304.111115 283.408264,310.888672 283.408264,317.966431 
	C285.309784,317.966431 287.050201,317.966431 289.219421,317.966431 
	C289.219421,315.047485 289.219421,312.253754 289.229095,308.523560 
M671.665710,298.329865 
	C670.838562,297.544128 669.988770,296.065186 669.188171,296.091370 
	C665.501343,296.211945 661.828308,296.752258 658.199219,297.136871 
	C658.199219,304.088684 658.199219,310.987335 658.199219,317.872986 
	C660.241272,317.872986 661.963379,317.872986 663.900574,317.872986 
	C663.900574,314.163666 663.764099,310.831543 663.938538,307.515717 
	C664.116638,304.129913 664.192139,300.467163 669.457092,301.416595 
	C669.941406,301.503967 670.732117,299.892151 671.665710,298.329865 
M38.040253,309.690430 
	C38.255016,305.289062 37.378792,300.025482 44.756790,301.451843 
	C45.252556,299.916534 45.692421,298.554352 46.237595,296.866028 
	C41.302200,296.866028 36.843884,296.866028 32.383247,296.866028 
	C32.383247,304.069427 32.383247,310.969147 32.383247,317.909393 
	C34.396984,317.909393 36.128819,317.909393 38.036358,317.909393 
	C38.036358,315.250458 38.036358,312.923431 38.040253,309.690430 
M77.869125,311.314148 
	C77.869125,306.549988 77.869125,301.785797 77.869125,296.787354 
	C75.691704,296.787354 73.975632,296.787354 72.173218,296.787354 
	C72.173218,303.996613 72.173218,310.895416 72.173218,317.943787 
	C74.115250,317.943787 75.849640,317.943787 77.869118,317.943787 
	C77.869118,315.851013 77.869118,314.048859 77.869125,311.314148 
M77.921753,289.632385 
	C76.101463,288.973755 74.281174,288.315155 71.760445,287.403076 
	C71.976799,290.310425 72.093292,291.875793 72.227188,293.675018 
	C74.928452,293.426208 78.239059,295.233185 77.921753,289.632385 
z"/>
<path fill="#E85324" opacity="1.000000" stroke="none" 
	d="
M410.531342,1.000000 
	C418.604492,4.196854 421.685577,9.654563 421.451538,18.123566 
	C420.954987,36.091736 421.299957,54.083157 421.299927,72.065048 
	C421.299927,73.866150 421.299927,75.667259 421.299927,77.795929 
	C404.163147,77.795929 387.430237,77.795929 369.963684,77.795929 
	C369.963684,58.287533 369.963684,38.776917 369.963684,18.811480 
	C359.957062,18.811480 350.669586,18.681072 341.392975,18.940107 
	C339.850403,18.983181 338.214264,20.557001 336.859528,21.704588 
	C319.582672,36.339489 302.394226,51.079361 285.041656,65.623482 
	C283.114166,67.239014 280.314087,67.813454 276.795197,69.366615 
	C276.795197,66.080627 276.795197,64.305443 276.795197,62.530266 
	C276.795227,46.379864 277.036530,30.223980 276.669800,14.081910 
	C276.534058,8.107899 278.577393,4.185686 283.878662,1.319676 
	C326.020905,1.000000 368.041779,1.000000 410.531342,1.000000 
z"/>
<path fill="#020202" opacity="1.000000" stroke="none" 
	d="
M698.840881,227.042770 
	C698.893799,224.882935 698.992737,222.723099 698.992981,220.563263 
	C699.001099,147.687943 698.999817,74.812630 698.999939,1.468657 
	C700.333313,1.000000 701.666687,1.000000 703.000000,1.000000 
	C703.000000,111.000000 703.000000,221.000000 703.000000,331.000000 
	C470.500000,331.000000 238.000000,331.002563 5.500009,330.956757 
	C3.565693,330.956390 0.191824,332.462250 1.000000,327.500000 
	C29.606285,327.000000 58.212570,327.000000 86.788742,327.000000 
	C85.318161,324.827515 83.955109,322.813843 82.592049,320.800201 
	C82.872086,320.441071 83.152122,320.081970 83.432167,319.722839 
	C85.473984,320.123383 87.517555,320.515259 89.557152,320.926819 
	C91.644073,321.347931 94.174294,322.700653 95.684479,321.960419 
	C97.157310,321.238434 97.585678,318.385773 98.039757,316.139984 
	C93.439682,318.476074 89.293114,319.614471 85.393066,315.697052 
	C82.059250,312.348358 81.003059,304.962433 83.956100,300.793365 
	C85.494965,298.620819 88.593529,296.255157 90.974693,296.268555 
	C94.965584,296.290985 98.935570,298.261993 104.123192,295.764404 
	C101.895508,306.849213 106.921043,317.453979 99.492371,326.999512 
	C100.301491,326.999512 101.512337,326.999512 102.723183,326.999512 
	C251.613327,326.999634 400.503479,327.000000 549.393616,326.994995 
	C550.557678,326.994965 551.721680,326.921906 553.771851,326.829742 
	C556.163025,326.777222 557.668152,326.777893 559.173218,326.778564 
	C566.997803,326.852325 574.822266,326.985016 582.646912,326.989777 
	C619.630920,327.012299 656.614929,326.999847 693.598938,326.999847 
	C695.233398,326.999847 696.867920,326.999847 698.972168,326.999847 
	C698.972168,297.114868 698.972168,267.521301 698.983398,237.016830 
	C698.943359,233.084869 698.892090,230.063812 698.840881,227.042770 
M97.035751,302.790131 
	C93.029343,299.210846 89.452881,299.680786 88.715950,304.295410 
	C88.298668,306.908447 89.380119,309.921387 90.418983,312.499390 
	C90.697083,313.189484 94.311180,313.572693 94.655846,313.017578 
	C96.091080,310.706238 96.922585,308.003601 97.826431,305.392883 
	C98.000931,304.888824 97.506371,304.153137 97.035751,302.790131 
z"/>
<path fill="#E95627" opacity="1.000000" stroke="none" 
	d="
M1.000000,242.428467 
	C1.912475,240.314423 3.073701,238.715973 3.699233,236.929901 
	C10.518419,217.459045 17.346361,197.990036 23.934959,178.440643 
	C25.275415,174.463318 27.407324,172.978088 31.530577,172.909912 
	C44.628605,172.693344 44.616428,172.572540 48.908169,184.975632 
	C55.383213,203.688477 61.887383,222.391235 68.351456,241.107864 
	C70.864204,248.383484 70.535431,248.823563 63.024487,248.862701 
	C54.543259,248.906891 54.543251,248.906906 51.802834,240.507233 
	C48.860725,231.489334 48.860733,231.489212 39.365288,231.489365 
	C34.366844,231.489441 29.356936,231.694626 24.374136,231.415558 
	C21.249815,231.240555 19.763880,232.439362 19.166880,235.324310 
	C18.898436,236.621521 18.402615,237.872711 17.994789,239.139893 
	C14.607649,249.664200 13.018059,250.551285 1.399675,248.094391 
	C1.000000,246.285645 1.000000,244.571289 1.000000,242.428467 
M38.660851,199.791016 
	C37.381073,196.061218 36.101295,192.331406 34.482212,187.612717 
	C30.834618,198.803802 27.516207,208.984940 24.130852,219.371460 
	C31.391092,219.371460 37.947742,219.371460 45.009563,219.371460 
	C42.880081,212.798203 40.894642,206.669586 38.660851,199.791016 
z"/>
<path fill="#040404" opacity="1.000000" stroke="none" 
	d="
M327.157776,53.169617 
	C334.074615,47.390320 340.712555,41.830460 347.368683,36.292477 
	C347.581940,36.115040 347.981781,36.161865 348.926422,35.987591 
	C348.926422,55.582367 348.926422,75.067497 348.926422,94.909698 
	C373.783356,94.909698 398.015869,94.909698 422.707916,94.909698 
	C422.707916,99.354454 423.131195,103.498306 422.599335,107.515724 
	C421.954315,112.387993 417.416656,115.918144 412.254456,115.925461 
	C372.952209,115.981171 333.649628,116.024132 294.347748,115.896118 
	C285.463470,115.867172 282.438171,111.694374 281.599945,103.013969 
	C280.753143,94.244743 283.839417,88.660378 290.771301,83.398651 
	C303.224854,73.945625 314.888153,63.451511 327.157776,53.169617 
z"/>
<path fill="#E9582A" opacity="1.000000" stroke="none" 
	d="
M452.579956,211.741699 
	C450.529480,225.193405 439.906586,232.005219 426.494385,228.864166 
	C424.502319,228.397629 422.144196,226.791870 421.388763,230.297089 
	C420.681000,233.581238 422.780792,235.002136 425.541382,235.237152 
	C430.845703,235.688675 436.194092,235.635696 441.494324,236.119354 
	C453.019989,237.171158 459.324677,244.216507 457.542206,253.909348 
	C456.307739,260.622467 451.952515,264.749725 445.818512,267.074371 
	C436.117706,270.750763 426.187531,270.723083 416.399170,267.723083 
	C405.282135,264.315765 402.722412,254.214981 410.447327,245.455933 
	C411.102325,244.713257 411.793213,244.002213 412.770538,242.950119 
	C406.588104,236.750793 407.182922,230.439987 412.503265,223.982834 
	C413.062195,223.304504 412.467163,221.244217 411.868500,220.109451 
	C405.407898,207.863480 411.906586,194.054688 425.743988,192.145844 
	C432.053711,191.275421 438.635071,192.394638 445.094238,192.575470 
	C447.257751,192.636047 449.425842,192.635651 451.589294,192.573624 
	C455.040314,192.474716 458.365082,192.188110 458.561279,197.249298 
	C458.733612,201.693573 457.518280,204.401535 452.514282,203.999115 
	C452.238617,203.976944 451.935883,204.291336 451.647461,204.450378 
	C451.963989,206.741653 452.278778,209.031647 452.579956,211.741699 
M424.936859,258.861023 
	C429.792755,258.544037 434.778564,258.758667 439.434052,257.621307 
	C441.061005,257.223846 442.867035,253.433868 442.735962,251.307556 
	C442.636108,249.687820 439.826019,247.474091 437.829407,246.907867 
	C434.708008,246.022644 431.248474,246.378021 427.943970,246.077835 
	C423.837219,245.704803 421.784210,248.216080 420.581543,251.499329 
	C419.326141,254.926498 420.980499,257.252472 424.936859,258.861023 
M436.179810,202.976425 
	C434.932434,202.577103 433.709991,201.972000 432.433014,201.817413 
	C428.737335,201.369980 424.801544,202.033035 423.702301,205.775101 
	C422.780121,208.914322 422.853851,213.050522 424.185669,215.970291 
	C425.874756,219.673325 430.191711,219.725601 433.881714,218.790512 
	C440.105469,217.213318 441.537872,209.397217 436.179810,202.976425 
z"/>
<path fill="#E95627" opacity="1.000000" stroke="none" 
	d="
M148.249451,192.974289 
	C157.358063,190.246826 159.307144,190.592300 171.762970,197.195557 
	C171.762970,189.261551 171.749512,181.701721 171.767303,174.141968 
	C171.781158,168.252975 172.351990,167.761490 178.954010,167.756317 
	C185.546097,167.751175 186.128250,168.247772 186.130936,174.132019 
	C186.141159,196.435272 186.196808,218.738876 186.062820,241.041321 
	C186.044708,244.058655 188.036087,248.468842 182.088913,248.872406 
	C175.319061,249.331772 174.483673,248.845535 173.306931,241.847244 
	C171.605682,243.149887 170.114883,244.348312 168.566879,245.467636 
	C156.103119,254.479874 140.650009,249.487946 136.143127,234.842163 
	C133.279556,225.536621 133.403076,216.100967 136.347931,206.822388 
	C138.278122,200.740891 141.837906,195.828827 148.249451,192.974289 
M154.607834,236.005783 
	C161.873978,239.012100 171.208084,234.198196 171.717834,226.986374 
	C172.022339,222.678177 171.900879,218.326111 171.735626,214.002762 
	C171.600266,210.461746 166.360535,205.138260 162.189240,204.135330 
	C158.033783,203.136215 154.621674,204.369812 152.170914,207.940735 
	C147.288574,215.054688 148.223648,228.917511 154.607834,236.005783 
z"/>
<path fill="#E95728" opacity="1.000000" stroke="none" 
	d="
M573.618774,245.224060 
	C569.595215,251.140839 563.832947,249.853592 558.526001,249.331726 
	C552.747437,248.763474 548.472839,245.564163 547.010925,239.757294 
	C546.169128,236.413559 545.946045,232.856720 545.877441,229.387238 
	C545.719910,221.419006 545.827515,213.445557 545.827515,204.818680 
	C540.240295,205.340012 536.240173,204.196091 537.201782,197.505402 
	C537.806274,193.298737 537.627136,193.198914 545.826843,192.272995 
	C545.826843,189.489441 545.984863,186.572205 545.786133,183.679474 
	C545.547424,180.205551 547.153809,178.773483 550.432190,178.766800 
	C551.764526,178.764084 553.099304,178.783676 554.428711,178.712738 
	C558.719971,178.483749 561.105103,180.012238 560.583862,184.786285 
	C560.318481,187.216736 560.537354,189.700058 560.537354,192.725708 
	C570.906921,192.725708 580.697083,192.717346 590.487244,192.728455 
	C597.850525,192.736801 598.083618,192.967361 598.088135,200.290665 
	C598.097046,214.617279 597.987305,228.945145 598.159607,243.269684 
	C598.205322,247.066315 596.974365,248.690170 593.114136,248.889954 
	C584.074646,249.357803 583.466492,248.908768 583.466064,239.936249 
	C583.465576,228.460571 583.465942,216.984879 583.465942,205.103180 
	C575.877441,205.103180 568.644714,205.103180 560.989624,205.103180 
	C560.989624,214.424622 560.790039,223.821899 561.101929,233.202164 
	C561.205750,236.325790 563.962891,237.516418 566.983398,237.248322 
	C568.783142,237.088577 570.557190,236.639740 573.716614,236.075500 
	C573.716614,239.194962 573.716614,242.009369 573.618774,245.224060 
z"/>
<path fill="#E9582A" opacity="1.000000" stroke="none" 
	d="
M393.980438,199.037125 
	C402.379486,211.540573 402.406128,224.423523 396.215729,237.193237 
	C391.426636,247.072327 379.451904,251.552551 366.448090,249.489105 
	C354.466858,247.587952 347.503113,241.152328 345.655396,229.251114 
	C344.876007,224.231186 344.866211,218.913849 345.567841,213.879608 
	C346.949951,203.963318 352.071381,196.200180 361.982574,193.192017 
	C373.294464,189.758743 384.366150,190.041779 393.980438,199.037125 
M360.026733,221.420502 
	C360.341034,223.889648 360.418518,226.417740 361.015656,228.816452 
	C362.578644,235.094971 366.261322,237.989243 372.318146,238.042587 
	C378.372040,238.095917 383.002899,235.270111 383.886322,229.223358 
	C384.755646,223.272964 384.667023,216.975052 383.729462,211.029785 
	C382.883698,205.666412 378.479309,203.073624 373.123383,202.959717 
	C367.695038,202.844254 363.585693,205.195282 361.834747,210.279480 
	C360.720581,213.514709 360.593384,217.089828 360.026733,221.420502 
z"/>
<path fill="#E95A2C" opacity="1.000000" stroke="none" 
	d="
M118.715149,248.835541 
	C114.567848,248.830200 110.243736,249.930725 109.946442,243.579865 
	C103.059013,249.340302 95.773911,251.172058 87.601021,248.973984 
	C80.283844,247.006042 76.097618,241.979752 75.438431,234.328751 
	C74.795601,226.867615 78.093155,220.462860 85.383125,218.249710 
	C92.437332,216.108124 99.958466,215.504578 107.569405,214.173889 
	C109.508629,206.648285 106.537193,202.305908 98.377213,202.757660 
	C94.172539,202.990433 90.054321,204.691727 85.883942,205.673874 
	C83.627068,206.205368 81.403076,209.727905 79.045197,205.988266 
	C77.018967,202.774597 78.052216,197.377701 81.488670,195.958084 
	C86.201866,194.011047 91.218391,192.689133 96.210793,191.572662 
	C98.745476,191.005814 101.528976,191.280533 104.170868,191.510071 
	C116.913109,192.617172 122.388206,198.280151 122.662399,211.074387 
	C122.897835,222.060669 122.689865,233.055984 122.746201,244.046951 
	C122.759560,246.653870 122.386536,248.764801 118.715149,248.835541 
M101.551834,238.627335 
	C108.600510,234.392426 109.171852,233.104004 107.404091,224.235153 
	C103.136765,224.729477 98.700829,224.870239 94.459511,225.851883 
	C91.022980,226.647263 89.079826,229.654388 90.030304,233.075226 
	C90.638901,235.265610 92.532616,237.601135 94.503868,238.751633 
	C96.078186,239.670471 98.639404,238.898392 101.551834,238.627335 
z"/>
<path fill="#E9582A" opacity="1.000000" stroke="none" 
	d="
M324.980652,248.616516 
	C318.152130,248.615753 311.818359,248.519730 305.489044,248.646790 
	C300.985260,248.737198 298.752777,247.105621 298.782318,242.238403 
	C298.911774,220.910782 298.906830,199.581512 298.770081,178.253983 
	C298.746460,174.570847 300.147095,173.023834 303.657806,173.029800 
	C305.156738,173.032349 306.657288,173.028061 308.154358,172.963287 
	C312.470703,172.776520 314.292175,174.388550 314.215363,179.122147 
	C313.942322,195.947159 314.109161,212.779297 314.109375,229.608734 
	C314.109406,231.416519 314.109375,233.224304 314.109375,235.859741 
	C320.741913,235.859741 326.998901,235.854691 333.255920,235.861160 
	C339.523987,235.867645 340.055573,236.356735 340.059082,242.054489 
	C340.062744,247.989975 339.401886,248.603714 332.975555,248.615875 
	C330.476135,248.620605 327.976715,248.616653 324.980652,248.616516 
z"/>
<path fill="#E9592B" opacity="1.000000" stroke="none" 
	d="
M224.011627,199.815063 
	C223.016312,193.279495 226.341095,191.707581 232.367279,192.696625 
	C232.367279,189.425720 232.556656,186.652908 232.321121,183.916656 
	C231.999405,180.178986 233.824265,178.759521 237.231430,178.669601 
	C238.561020,178.634506 239.890915,178.610245 241.220383,178.571381 
	C245.532455,178.445343 247.777069,180.133163 247.157486,184.830643 
	C246.858673,187.096130 247.105942,189.433624 247.105942,192.582245 
	C250.401459,192.582245 253.319275,192.695862 256.224945,192.556412 
	C260.934845,192.330368 260.609100,195.732208 260.611145,198.669556 
	C260.613220,201.655884 260.742676,204.969482 256.106842,204.728241 
	C253.318924,204.583160 250.517303,204.701569 247.334793,204.701569 
	C247.334793,214.105133 247.127167,223.041428 247.429169,231.960480 
	C247.564377,235.953568 250.382401,237.732162 254.382828,237.204803 
	C255.999405,236.991699 257.587769,236.564545 259.138794,236.245148 
	C262.838043,244.130356 260.486786,248.645767 252.360840,249.627350 
	C239.823761,251.141785 232.882111,245.168243 232.430099,232.138748 
	C232.176422,224.826782 232.385132,217.499176 232.355698,210.178741 
	C232.349167,208.551346 232.217239,206.924438 232.134933,205.119446 
	C228.944366,204.073975 223.810562,206.280228 224.011627,199.815063 
z"/>
<path fill="#E95A2C" opacity="1.000000" stroke="none" 
	d="
M494.526276,236.122375 
	C496.225281,235.796600 497.865540,235.572418 499.387360,235.899384 
	C503.711609,236.828384 507.973022,238.674622 512.288452,238.765350 
	C514.558350,238.813049 517.901123,236.440262 518.956482,234.279739 
	C520.549744,231.017944 517.630249,228.857086 514.719238,227.541107 
	C510.933594,225.829742 507.014618,224.392563 503.312683,222.521515 
	C497.053589,219.358093 493.962646,214.140854 494.476929,207.089111 
	C494.974854,200.261337 498.538757,194.901398 505.048340,193.438721 
	C511.171295,192.062927 517.862305,191.852768 524.095093,192.686691 
	C531.254822,193.644638 532.770874,198.099228 529.480286,205.586304 
	C528.166443,205.075775 526.861938,204.447510 525.489380,204.060883 
	C522.625854,203.254242 519.761292,202.233322 516.832458,201.934097 
	C513.488586,201.592484 509.777649,201.793839 508.703461,205.927536 
	C507.598969,210.177826 510.897705,211.770508 514.028137,213.145050 
	C517.527832,214.681763 521.169922,215.915756 524.593201,217.600311 
	C530.630737,220.571335 533.993835,225.364822 533.769531,232.322632 
	C533.544312,239.309525 530.350220,244.454132 523.960815,247.278595 
	C515.437927,251.046158 506.806641,250.682007 498.270355,247.177658 
	C493.102570,245.056168 494.203888,240.583847 494.526276,236.122375 
z"/>
<path fill="#E9592B" opacity="1.000000" stroke="none" 
	d="
M698.536438,226.892075 
	C698.892090,230.063812 698.943359,233.084869 698.916504,236.552307 
	C691.524475,248.770309 680.130005,252.733902 666.325745,248.308273 
	C659.259521,246.042847 657.562561,242.075912 660.849243,234.403229 
	C662.610046,235.164276 664.306946,236.238220 666.148315,236.625275 
	C670.463074,237.532272 674.855347,238.634430 679.198853,238.565262 
	C680.952881,238.537338 683.756042,235.848709 684.075500,234.020386 
	C684.379822,232.278778 682.544922,229.315170 680.812439,228.242020 
	C677.176208,225.989731 672.904541,224.795395 669.047485,222.860352 
	C661.873901,219.261353 659.094299,214.087769 659.777039,206.254440 
	C660.348145,199.702286 664.530396,194.238068 671.923401,192.807358 
	C677.474426,191.733093 683.497681,191.756546 689.101318,192.631821 
	C696.311157,193.758011 697.762817,197.741226 694.668213,205.627701 
	C693.198792,205.049011 691.744019,204.407806 690.243652,203.901886 
	C688.199829,203.212723 686.153992,202.266754 684.050232,202.074585 
	C680.152161,201.718506 675.351257,200.738831 673.910339,205.816452 
	C672.391052,211.170471 677.223816,212.395325 680.850586,213.839569 
	C687.815552,216.613098 695.200745,218.710266 698.536438,226.892075 
z"/>
<path fill="#E9592B" opacity="1.000000" stroke="none" 
	d="
M651.624634,204.361237 
	C651.054932,206.037811 650.518860,207.327301 649.840942,208.958038 
	C646.978943,207.329559 644.775513,205.839264 642.386536,204.759644 
	C634.348511,201.127228 627.267273,204.284561 625.607544,212.861923 
	C624.681213,217.649323 624.629639,222.879684 625.484131,227.678909 
	C627.081604,236.650146 634.696228,239.966461 642.950928,235.865356 
	C645.419434,234.638947 647.720764,233.075974 650.100281,231.666245 
	C653.971191,238.978073 652.221069,244.638611 645.562378,247.540939 
	C628.095825,255.154037 611.644836,245.787186 609.992981,226.938217 
	C609.520447,221.546463 609.741760,215.860336 610.932495,210.600677 
	C614.348267,195.513245 628.460632,187.872589 643.263550,192.521286 
	C650.400452,194.762558 651.658875,196.479340 651.624634,204.361237 
z"/>
<path fill="#E95B2E" opacity="1.000000" stroke="none" 
	d="
M482.840881,199.281525 
	C482.840637,214.211639 482.609802,228.678986 482.950104,243.132889 
	C483.092651,249.186127 479.486084,248.911728 475.529388,248.878357 
	C471.662109,248.845749 467.889618,249.366745 468.024323,243.230942 
	C468.348907,228.443710 468.121216,213.644516 468.132507,198.850143 
	C468.137024,192.960144 468.836853,192.329208 475.215210,192.277237 
	C482.011963,192.221878 482.706726,192.817352 482.840881,199.281525 
z"/>
<path fill="#E85526" opacity="1.000000" stroke="none" 
	d="
M215.354950,209.003601 
	C215.354767,220.803253 215.114395,232.110977 215.448380,243.401718 
	C215.634552,249.695587 211.535141,248.753052 207.812851,248.842636 
	C203.961212,248.935364 200.698608,248.915558 200.820480,243.235107 
	C201.144760,228.119156 201.125351,212.987869 200.831192,197.870682 
	C200.718765,192.093246 204.300354,192.382675 207.998230,192.326508 
	C214.439026,192.228668 215.302017,192.929642 215.348145,198.034897 
	C215.379684,201.524521 215.354584,205.014648 215.354950,209.003601 
z"/>
<path fill="#131313" opacity="1.000000" stroke="none" 
	d="
M211.141876,305.076111 
	C211.141891,302.121033 211.141891,299.647278 211.141891,296.486298 
	C217.226593,296.486298 223.053986,296.354767 228.862747,296.624329 
	C229.761536,296.666046 230.911469,298.418488 231.360001,299.601685 
	C232.389572,302.317444 233.058060,305.170135 234.216446,309.145477 
	C235.905640,304.226349 237.155029,300.587952 238.482468,296.722290 
	C247.592651,295.040741 243.844543,303.766724 247.809464,308.202148 
	C248.810638,305.127106 249.855133,302.778137 250.312866,300.319885 
	C251.075867,296.222412 253.422226,295.889008 257.086884,296.996338 
	C255.032898,303.497009 253.171387,309.845764 250.923752,316.054688 
	C250.546616,317.096466 248.514633,318.042328 247.215454,318.086029 
	C246.199265,318.120209 244.603119,316.899902 244.192825,315.867950 
	C243.100922,313.121735 242.510468,310.176086 240.675064,307.079742 
	C239.902206,309.580688 239.379349,312.200775 238.264908,314.538910 
	C237.570145,315.996552 236.189041,317.622070 234.750153,318.124390 
	C231.969437,319.095093 231.226532,316.844086 230.566025,314.599945 
	C229.068451,309.511627 227.380508,304.479340 224.634567,298.558868 
	C224.457184,299.211243 224.352264,300.403168 224.091949,300.438171 
	C214.230301,301.762695 217.715836,309.418884 217.086349,315.098755 
	C216.995407,315.919312 217.003632,316.750854 216.950790,317.910278 
	C215.145279,317.910278 213.414520,317.910278 211.141876,317.910278 
	C211.141876,313.757996 211.141876,309.657715 211.141876,305.076111 
z"/>
<path fill="#121212" opacity="1.000000" stroke="none" 
	d="
M414.480774,302.029999 
	C415.386230,303.630463 416.259918,304.832489 416.590851,305.287781 
	C419.367798,304.971802 421.580902,304.719971 424.563477,304.380585 
	C423.578613,307.387634 422.974701,309.231598 422.291107,311.318817 
	C423.464691,312.327850 424.696350,313.386841 426.307251,314.771912 
	C425.291901,316.104218 424.245789,317.476868 422.932953,319.199524 
	C419.845795,316.090637 417.040344,316.726013 413.515411,318.094269 
	C405.407288,321.241577 397.208099,315.603058 399.114014,308.397400 
	C399.892639,305.453735 402.535828,303.003265 404.653992,299.846680 
	C404.733215,300.007446 404.495117,299.422180 404.173065,298.887451 
	C401.917877,295.142792 401.581848,291.631317 405.670471,288.916382 
	C409.248047,286.540802 415.778564,287.482330 417.932343,290.708588 
	C420.653717,294.785126 418.857147,297.907440 415.501953,300.578308 
	C415.116028,300.885498 414.798309,301.278381 414.480774,302.029999 
M413.740112,310.937317 
	C412.023590,308.838989 410.307068,306.740692 408.458832,304.481354 
	C405.380798,306.783508 403.254944,309.221436 405.623840,312.195343 
	C408.163025,315.383087 411.341064,314.588104 413.740112,310.937317 
M410.709625,297.721558 
	C411.836395,296.549622 413.072601,295.453552 413.987152,294.134460 
	C414.148163,293.902222 413.045441,292.222626 412.381958,292.116821 
	C411.239929,291.934723 409.984436,292.464508 408.776550,292.695526 
	C409.209930,294.243683 409.643311,295.791870 410.709625,297.721558 
z"/>
<path fill="#161616" opacity="1.000000" stroke="none" 
	d="
M298.594238,307.034698 
	C299.812897,296.898438 303.692657,294.471527 313.805756,297.339447 
	C313.949799,294.386230 314.091400,291.483246 314.244843,288.337402 
	C316.129211,288.337402 317.705292,288.337402 319.604553,288.337402 
	C319.604553,298.225372 319.604553,307.944885 319.604553,317.374237 
	C315.293701,317.868622 311.085358,318.770538 306.888062,318.721832 
	C302.107056,318.666382 299.335999,314.482086 298.594238,307.034698 
M307.064301,313.524048 
	C308.983002,313.087891 312.204437,313.124298 312.567413,312.123749 
	C313.519440,309.499634 313.648468,306.359711 313.227875,303.557068 
	C313.048767,302.363434 310.677551,300.699219 309.309937,300.706207 
	C307.917938,300.713287 305.419769,302.451233 305.359772,303.539001 
	C305.187866,306.657623 306.005493,309.830811 307.064301,313.524048 
z"/>
<path fill="#191919" opacity="1.000000" stroke="none" 
	d="
M167.073395,306.127319 
	C166.686066,310.218781 166.686066,314.003571 166.686066,318.020874 
	C164.303177,318.020874 162.552307,318.020874 160.523193,318.020874 
	C160.523193,308.134369 160.523193,298.426910 160.523193,288.388641 
	C167.268417,288.388641 173.830841,288.388641 180.766449,288.388641 
	C180.864594,289.806549 180.961548,291.207428 181.101669,293.232056 
	C176.246078,293.232056 171.697586,293.232056 166.824173,293.232056 
	C166.824173,295.733337 166.824173,297.637695 166.824173,300.137756 
	C170.724686,300.137756 174.627350,300.137756 178.793686,300.137756 
	C178.793686,302.146851 178.793686,303.566376 178.793686,305.820648 
	C174.981400,305.820648 171.221069,305.820648 167.073395,306.127319 
z"/>
<path fill="#111111" opacity="1.000000" stroke="none" 
	d="
M553.781555,326.264618 
	C553.781555,316.538483 553.781555,306.812347 553.781555,297.308838 
	C558.048401,296.850708 562.362732,295.499268 566.260559,296.265808 
	C569.092712,296.822784 572.403564,299.696808 573.672607,302.397034 
	C575.871277,307.075348 575.268494,312.274902 571.377869,316.274353 
	C568.541443,319.190063 565.070618,319.737396 561.382446,317.613220 
	C560.863220,317.314117 560.237122,317.200592 559.155396,316.826477 
	C559.155396,319.871796 559.155396,322.485443 558.626587,325.563965 
	C556.659058,326.107422 555.220337,326.186035 553.781555,326.264618 
M568.723999,307.443909 
	C568.567810,304.122681 568.169556,300.772339 563.840454,300.717560 
	C560.137329,300.670746 559.188049,303.537476 559.126648,306.555634 
	C559.060913,309.780609 559.329590,313.318939 563.401001,313.932770 
	C567.440674,314.541870 568.338623,311.468781 568.723999,307.443909 
z"/>
<path fill="#121212" opacity="1.000000" stroke="none" 
	d="
M109.097816,300.021820 
	C109.097816,295.901062 109.097816,292.274750 109.097816,288.346008 
	C111.111328,288.233704 112.700859,288.145020 114.754776,288.030457 
	C114.754776,291.394836 114.754776,294.480743 114.754776,298.173981 
	C116.484131,297.421692 117.592110,296.853577 118.756668,296.447845 
	C124.101280,294.585938 128.439926,297.409668 128.968460,303.066772 
	C129.030197,303.727509 129.022858,304.396027 129.023590,305.060974 
	C129.028152,309.213837 129.025894,313.366699 129.025894,317.882141 
	C127.145691,317.882141 125.424393,317.882141 123.085167,317.882141 
	C123.085167,313.842072 123.412125,309.717957 122.937561,305.688263 
	C122.722839,303.864990 121.152603,301.020813 119.782524,300.751709 
	C116.599617,300.126587 115.131142,302.640594 115.082108,305.714142 
	C115.018593,309.695618 115.066612,313.678833 115.066612,317.952698 
	C113.067215,317.952698 111.320633,317.952698 109.097816,317.952698 
	C109.097816,312.049225 109.097816,306.282745 109.097816,300.021820 
z"/>
<path fill="#121212" opacity="1.000000" stroke="none" 
	d="
M13.040982,313.739685 
	C13.040901,315.352722 13.040901,316.509552 13.040901,317.956268 
	C11.094029,317.956268 9.344864,317.956268 7.260557,317.956268 
	C7.260557,308.170135 7.260557,298.338867 7.260557,288.293854 
	C13.882240,288.293854 20.307623,288.293854 27.289959,288.293854 
	C27.368374,289.787750 27.448492,291.314087 27.547127,293.193237 
	C22.623514,293.193237 18.177362,293.193237 13.388540,293.193237 
	C13.388540,295.557678 13.388540,297.603058 13.388540,300.200562 
	C17.209518,300.200562 21.096735,300.200562 25.317345,300.200562 
	C25.420370,302.131256 25.495428,303.537842 25.597517,305.450989 
	C21.342739,305.450989 17.439230,305.450989 13.041063,305.450989 
	C13.041063,308.382446 13.041063,310.832947 13.040982,313.739685 
z"/>
<path fill="#171717" opacity="1.000000" stroke="none" 
	d="
M492.961517,316.980164 
	C490.880463,317.670502 489.201111,318.687134 487.469116,318.786560 
	C483.832245,318.995422 480.842773,317.566071 480.022095,313.653809 
	C479.195953,309.715546 481.275330,307.334656 484.864929,306.122101 
	C486.117828,305.698853 487.475464,305.581787 488.721741,305.144043 
	C490.208282,304.621918 491.626556,303.905426 493.074402,303.273132 
	C492.759277,302.558441 492.453308,301.234619 492.127594,301.229767 
	C490.277313,301.202057 488.411804,301.418518 486.571869,301.689941 
	C484.742615,301.959717 482.937408,302.392578 480.460815,302.885437 
	C482.924530,296.732941 486.734985,294.994965 492.995148,296.031219 
	C498.003510,296.860229 499.300720,300.138336 499.145844,304.676422 
	C498.999542,308.964600 499.114441,313.261627 499.114441,318.400513 
	C497.399231,317.952179 495.369293,317.421570 492.961517,316.980164 
M490.979675,308.428619 
	C489.716125,308.814026 487.826630,308.836914 487.342133,309.673523 
	C486.687134,310.804443 487.111328,312.560394 487.072479,314.048157 
	C488.736389,313.803375 491.118256,314.119019 491.867065,313.159851 
	C492.652649,312.153625 491.872375,309.924896 490.979675,308.428619 
z"/>
<path fill="#151515" opacity="1.000000" stroke="none" 
	d="
M590.645935,295.986023 
	C598.671265,298.567535 601.926758,304.359192 599.636047,311.287933 
	C597.622742,317.377899 590.928894,320.383514 584.647583,318.017914 
	C579.569397,316.105377 576.881409,310.903564 577.938660,305.034698 
	C579.014648,299.061523 582.992004,296.122375 590.645935,295.986023 
M584.065063,309.927826 
	C586.560303,314.215546 590.091187,315.660828 591.967224,312.679108 
	C593.479492,310.275574 593.562561,306.596954 593.225037,303.602966 
	C593.101746,302.509399 589.879944,300.908600 588.173645,301.025696 
	C584.445923,301.281433 583.813965,304.451569 583.786804,307.629944 
	C583.782593,308.123108 583.856567,308.616974 584.065063,309.927826 
z"/>
<path fill="#0D0D0D" opacity="1.000000" stroke="none" 
	d="
M514.643433,296.284058 
	C522.210144,295.796661 524.364929,297.747864 524.481018,304.866302 
	C524.551025,309.161438 524.493896,313.458710 524.493896,317.987457 
	C522.465515,317.987457 520.863586,317.987457 518.612061,317.987457 
	C518.612061,313.789124 518.960449,309.653809 518.453796,305.626068 
	C518.226746,303.820557 516.287109,302.230408 515.124634,300.542542 
	C513.618042,302.173950 511.111633,303.640381 510.809631,305.470581 
	C510.148285,309.478363 510.604828,313.670593 510.604828,318.002808 
	C508.391785,318.002808 506.788177,318.002808 504.903442,318.002808 
	C504.903442,310.935455 504.903442,304.042908 504.903442,297.144379 
	C508.070892,296.899414 511.167603,296.659943 514.643433,296.284058 
z"/>
<path fill="#171717" opacity="1.000000" stroke="none" 
	d="
M535.259033,313.291992 
	C537.816833,313.712708 540.107056,313.830109 542.397278,313.947479 
	C542.520081,313.140625 542.642944,312.333771 542.765747,311.526917 
	C540.255005,310.715302 537.761292,309.845337 535.229492,309.105927 
	C531.589355,308.042847 528.567749,306.304199 529.109619,301.940887 
	C529.665710,297.463440 533.081909,296.127777 537.037109,295.946625 
	C541.470154,295.743591 545.694214,296.133484 548.034607,302.375549 
	C543.135864,301.600372 539.075500,300.957855 535.015137,300.315338 
	C534.830078,301.036407 534.645020,301.757507 534.459961,302.478577 
	C536.755371,303.255890 539.024597,304.124847 541.352112,304.789856 
	C545.191650,305.886871 549.081482,307.129150 548.435791,312.163422 
	C547.818298,316.977600 544.034241,318.459991 539.772888,318.844849 
	C534.203064,319.347778 530.924500,317.485748 527.870056,311.227936 
	C530.877808,311.971588 532.934631,312.480103 535.259033,313.291992 
z"/>
<path fill="#161616" opacity="1.000000" stroke="none" 
	d="
M264.857483,296.375549 
	C267.069214,296.132294 268.900818,295.864044 270.708466,295.977325 
	C275.852234,296.299713 277.878235,298.349396 278.013275,303.475494 
	C278.139038,308.250885 278.040161,313.032166 278.040161,317.565338 
	C274.308167,317.972015 270.173523,318.655792 266.019897,318.802429 
	C262.612885,318.922760 259.762756,317.468781 259.001709,313.747192 
	C258.200653,309.830109 260.089508,307.357880 263.746979,306.160522 
	C265.163055,305.696960 266.679657,305.538513 268.092194,305.066559 
	C269.436249,304.617554 270.735168,303.993469 271.953979,303.276459 
	C272.065582,303.210785 271.520020,301.325714 271.161926,301.283508 
	C269.452423,301.081970 267.666595,301.014374 265.976013,301.301025 
	C264.041809,301.628998 262.179413,302.380646 260.285828,302.948212 
	C259.955414,302.285828 259.624969,301.623413 259.294525,300.961029 
	C261.018494,299.482269 262.742432,298.003479 264.857483,296.375549 
M271.585876,312.665131 
	C271.789490,311.194305 271.993073,309.723480 272.251312,307.858124 
	C270.667969,308.274536 269.813690,308.347260 269.114105,308.714600 
	C267.624054,309.496887 266.126984,310.328247 264.851746,311.400024 
	C264.621185,311.593781 265.410034,313.758820 265.773071,313.771973 
	C267.532104,313.835419 269.306427,313.475403 271.585876,312.665131 
z"/>
<path fill="#161616" opacity="1.000000" stroke="none" 
	d="
M364.694031,315.430695 
	C364.042725,314.297882 363.624298,313.442902 363.205872,312.587921 
	C363.416321,312.136414 363.626801,311.684906 363.837280,311.233398 
	C365.987823,311.996124 368.089355,312.993317 370.302612,313.455811 
	C372.531006,313.921448 374.870514,313.855591 377.161316,314.022644 
	C377.294098,313.232086 377.426880,312.441528 377.559662,311.651001 
	C375.238770,310.846375 372.947601,309.938538 370.590363,309.260284 
	C366.627258,308.119995 363.083527,306.484711 364.001404,301.516357 
	C364.873383,296.796539 368.738983,295.971039 372.789917,295.921692 
	C376.932861,295.871216 380.800293,296.441528 382.640411,302.339050 
	C377.927521,301.594604 373.858612,300.951904 369.789703,300.309204 
	C369.601227,301.038361 369.412750,301.767548 369.224243,302.496704 
	C371.685852,303.298553 374.137177,304.133728 376.611481,304.894196 
	C380.068115,305.956635 383.524353,307.113647 383.252167,311.665100 
	C382.970795,316.371002 379.585052,318.664703 375.557373,318.577698 
	C371.994873,318.500732 368.468964,316.730927 364.694031,315.430695 
z"/>
<path fill="#161616" opacity="1.000000" stroke="none" 
	d="
M449.063110,288.070129 
	C454.003693,288.070129 458.458771,288.070129 463.269196,288.070129 
	C463.388489,289.819824 463.484283,291.225250 463.609406,293.060272 
	C460.701508,293.230438 458.126587,293.381104 454.964050,293.566162 
	C454.964050,301.691986 454.964050,309.715454 454.964050,317.990143 
	C452.617798,317.990143 450.867065,317.990143 448.668060,317.990143 
	C448.668060,309.951111 448.668060,302.053345 448.668060,293.644135 
	C445.706085,293.462830 443.137665,293.305573 440.000732,293.113525 
	C439.924408,291.604492 439.848236,290.098511 439.745636,288.070129 
	C443.021820,288.070129 445.799713,288.070129 449.063110,288.070129 
z"/>
<path fill="#151515" opacity="1.000000" stroke="none" 
	d="
M692.184937,314.038391 
	C686.329468,321.194611 676.761597,320.393097 671.999451,311.102936 
	C675.277283,312.072906 677.533203,312.407104 679.458496,313.389404 
	C682.247314,314.812439 684.614014,315.283112 687.564148,311.693237 
	C684.470886,310.698730 681.958069,309.817749 679.402283,309.086578 
	C675.705688,308.029022 672.816284,306.185730 673.381592,301.839264 
	C673.930359,297.619659 677.135315,296.270599 680.918579,295.946808 
	C686.574585,295.462769 689.187622,296.714050 692.342468,302.257599 
	C687.360718,301.540131 683.246155,300.947601 679.131592,300.355042 
	C678.951355,301.119629 678.771118,301.884247 678.590881,302.648834 
	C681.264526,303.446228 683.949890,304.206848 686.609192,305.049438 
	C690.821350,306.384094 693.965881,308.469330 692.184937,314.038391 
z"/>
<path fill="#151515" opacity="1.000000" stroke="none" 
	d="
M648.963379,311.669861 
	C650.429626,311.930145 651.542297,312.139954 652.698303,312.357910 
	C650.650208,317.837921 645.997009,320.035004 640.376648,318.379547 
	C634.960327,316.784210 632.251648,311.430054 633.458679,304.704865 
	C634.517944,298.802887 638.606750,295.477631 644.234924,295.940887 
	C650.281250,296.438599 653.363892,300.665771 653.317993,309.009705 
	C648.809204,309.009705 644.272949,309.009705 639.638611,309.009705 
	C640.886475,315.218170 642.810974,315.653320 648.963379,311.669861 
M645.812073,305.638336 
	C646.307739,304.734589 647.328613,303.115997 647.219238,303.035645 
	C645.861450,302.037994 644.143494,300.382263 642.908813,300.656219 
	C641.369507,300.997772 640.193665,302.977448 638.860840,304.249817 
	C639.134888,304.716370 639.408936,305.182892 639.682983,305.649445 
	C641.468689,305.649445 643.254456,305.649445 645.812073,305.638336 
z"/>
<path fill="#121212" opacity="1.000000" stroke="none" 
	d="
M199.936371,296.642761 
	C206.346588,300.331696 208.495209,305.843597 206.168915,311.813263 
	C204.121124,317.068237 198.811783,319.847717 193.281189,318.560120 
	C186.750580,317.039642 183.421677,311.425140 184.919724,304.457703 
	C186.316422,297.961578 191.685776,295.042572 199.936371,296.642761 
M200.850128,305.019897 
	C199.527756,301.144958 196.516571,299.137390 193.353577,301.706818 
	C191.507889,303.206116 190.911255,307.255585 191.219299,309.992676 
	C191.388916,311.499939 195.445328,314.157928 196.262955,313.691528 
	C198.308563,312.524536 199.563431,309.909515 200.997253,307.782227 
	C201.298447,307.335388 201.006409,306.488678 200.850128,305.019897 
z"/>
<path fill="#141414" opacity="1.000000" stroke="none" 
	d="
M325.437592,300.546753 
	C328.696198,296.074768 332.768158,294.892639 337.513519,296.588562 
	C342.987061,298.544769 343.988983,303.170105 344.051788,308.838989 
	C339.399292,308.838989 334.855408,308.838989 330.240356,308.838989 
	C331.024200,314.536316 333.060333,315.373718 337.368927,312.822418 
	C338.916443,311.906067 341.121735,312.100494 343.682098,311.680420 
	C341.903229,317.498596 338.231354,318.932892 333.810913,318.830353 
	C329.001282,318.718842 325.169678,316.402771 324.416748,311.540497 
	C323.885071,308.106995 324.907776,304.432800 325.437592,300.546753 
M329.978546,303.814667 
	C332.520599,304.620148 335.062622,305.425659 337.604675,306.231140 
	C337.978485,305.548035 338.352295,304.864929 338.726105,304.181824 
	C337.480835,302.964752 336.322388,300.896088 334.967194,300.757935 
	C333.459229,300.604279 331.772125,302.208649 329.978546,303.814667 
z"/>
<path fill="#0F0F0F" opacity="1.000000" stroke="none" 
	d="
M51.084877,297.910828 
	C60.576839,293.212830 67.022835,297.606934 67.111137,308.845093 
	C62.563789,308.845093 58.001011,308.845093 53.374634,308.845093 
	C54.228256,314.625000 56.341774,315.457031 60.842693,312.681030 
	C62.264118,311.804352 64.361038,312.022919 66.422913,311.696869 
	C65.136444,316.610748 62.902241,318.564636 58.468182,318.820404 
	C53.987202,319.078888 50.071747,317.720978 48.258095,313.310455 
	C46.019306,307.866058 46.341995,302.599335 51.084877,297.910828 
M53.134861,303.883118 
	C55.518978,307.692596 58.527702,305.079224 61.653111,304.484955 
	C60.676296,302.782043 59.439724,300.745087 58.062790,300.645355 
	C56.563896,300.536743 54.934715,302.226501 53.134861,303.883118 
z"/>
<path fill="#E95A2C" opacity="1.000000" stroke="none" 
	d="
M599.023132,180.011276 
	C596.568970,184.565140 592.514771,185.945190 587.041077,184.584000 
	C582.814331,183.532867 582.391785,180.295639 582.452026,176.820435 
	C582.542664,171.587204 584.747803,169.572052 590.330688,169.430191 
	C596.666016,169.269226 599.083252,171.178055 599.381531,176.670715 
	C599.434875,177.652328 599.204102,178.649368 599.023132,180.011276 
z"/>
<path fill="#E95D30" opacity="1.000000" stroke="none" 
	d="
M483.825195,179.503540 
	C481.610687,184.564148 475.215576,186.570221 470.300140,184.132324 
	C467.242004,182.615570 465.856354,176.845352 467.813171,172.964691 
	C470.009979,168.608063 474.157227,169.357620 477.921173,169.567657 
	C481.299622,169.756149 483.557953,171.506668 483.862274,175.110931 
	C483.973755,176.431305 483.884094,177.768677 483.825195,179.503540 
z"/>
<path fill="#E95B2E" opacity="1.000000" stroke="none" 
	d="
M210.448639,169.503784 
	C215.204407,170.041061 216.720673,172.906372 216.686371,176.837357 
	C216.658173,180.069351 216.364777,183.927597 212.435577,184.241562 
	C208.740692,184.536804 203.916489,184.392456 201.486496,182.269623 
	C199.706741,180.714844 199.830444,174.992661 201.303482,172.355530 
	C202.408051,170.378036 207.009598,170.353882 210.448639,169.503784 
z"/>
<path fill="#171717" opacity="1.000000" stroke="none" 
	d="
M621.420532,295.130707 
	C620.239502,290.502930 624.473022,291.029602 626.619385,288.712250 
	C627.421143,292.443665 625.876282,296.496094 630.691956,297.153748 
	C630.403381,298.431244 630.549988,300.295410 629.752563,300.886902 
	C625.860840,303.773529 625.907593,311.369415 629.966797,313.972290 
	C630.632446,314.399200 631.235901,315.504395 631.205750,316.270020 
	C631.176208,317.020050 630.465576,318.059906 629.769653,318.414093 
	C626.109558,320.276947 621.755005,317.952759 621.344360,313.800385 
	C620.939270,309.703857 620.922607,305.568970 620.230591,300.895294 
	C620.290588,298.603363 620.855591,296.867035 621.420532,295.130707 
z"/>
<path fill="#141414" opacity="1.000000" stroke="none" 
	d="
M135.284943,315.185577 
	C135.120895,311.447205 135.224426,308.110901 134.928192,304.810516 
	C134.807892,303.470276 133.789658,302.219910 133.233246,300.906128 
	C132.875565,300.061554 132.089066,298.832428 132.395172,298.363708 
	C134.556244,295.054688 136.950714,291.898071 139.270691,288.692841 
	C139.756195,288.967987 140.241714,289.243134 140.727234,289.518280 
	C140.830658,291.441376 140.934082,293.364441 141.017868,294.922424 
	C142.419495,296.342743 144.052521,297.408997 144.635941,298.889038 
	C144.857895,299.452118 142.668396,300.965759 140.936325,302.681885 
	C140.936325,304.560394 140.672180,307.402740 141.050888,310.156708 
	C141.232529,311.477509 142.641541,312.623474 143.473160,313.863068 
	C144.028336,314.690552 145.041031,315.605011 144.946198,316.368439 
	C144.842926,317.199799 143.805420,318.389038 142.984879,318.572968 
	C139.895218,319.265350 136.979156,318.986877 135.284943,315.185577 
z"/>
<path fill="#202020" opacity="1.000000" stroke="none" 
	d="
M621.104736,295.458221 
	C620.855591,296.867035 620.290588,298.603363 619.869141,300.644531 
	C611.232544,300.847107 610.516968,301.510101 610.359314,310.046021 
	C610.313538,312.523224 610.352234,315.001984 610.352234,318.001160 
	C608.430115,318.112701 606.718079,318.212067 604.673462,318.330750 
	C604.673462,311.027496 604.673462,304.130005 604.673462,297.020721 
	C610.022461,296.610809 615.405640,296.198273 621.104736,295.458221 
z"/>
<path fill="#171717" opacity="1.000000" stroke="none" 
	d="
M475.418762,301.389282 
	C471.493195,301.244995 471.056763,303.849670 470.938080,306.378754 
	C470.761230,310.147614 470.892181,313.930908 470.892181,317.963074 
	C468.591064,317.963074 466.875122,317.963074 464.970856,317.963074 
	C464.970856,310.909790 464.970856,304.152832 464.970856,296.929749 
	C469.462646,296.720032 473.940430,296.510986 478.418182,296.301910 
	C478.675049,296.791687 478.931885,297.281464 479.188751,297.771240 
	C478.066498,299.009705 476.944244,300.248199 475.418762,301.389282 
z"/>
<path fill="#1C1C1C" opacity="1.000000" stroke="none" 
	d="
M354.338318,312.688293 
	C354.337616,314.613892 354.337616,316.094116 354.337616,317.924011 
	C352.393188,317.924011 350.678040,317.924011 348.664764,317.924011 
	C348.664764,310.971588 348.664764,304.081757 348.664764,296.768555 
	C353.115448,296.768555 357.535095,296.768555 362.395081,296.768555 
	C361.985840,298.388641 361.638306,299.764404 361.251373,301.296295 
	C351.943848,300.640320 355.067688,307.606262 354.338318,312.688293 
z"/>
<path fill="#191919" opacity="1.000000" stroke="none" 
	d="
M289.224243,308.991760 
	C289.219421,312.253754 289.219421,315.047485 289.219421,317.966431 
	C287.050201,317.966431 285.309784,317.966431 283.408264,317.966431 
	C283.408264,310.888672 283.408264,304.111115 283.408264,296.923004 
	C287.913666,296.712128 292.419250,296.501282 297.412476,296.267578 
	C296.641754,299.569458 296.753357,301.546539 292.882202,301.508209 
	C288.847900,301.468231 289.598907,305.680389 289.224243,308.991760 
z"/>
<path fill="#161616" opacity="1.000000" stroke="none" 
	d="
M671.523132,298.699585 
	C670.732117,299.892151 669.941406,301.503967 669.457092,301.416595 
	C664.192139,300.467163 664.116638,304.129913 663.938538,307.515717 
	C663.764099,310.831543 663.900574,314.163666 663.900574,317.872986 
	C661.963379,317.872986 660.241272,317.872986 658.199219,317.872986 
	C658.199219,310.987335 658.199219,304.088684 658.199219,297.136871 
	C661.828308,296.752258 665.501343,296.211945 669.188171,296.091370 
	C669.988770,296.065186 670.838562,297.544128 671.523132,298.699585 
z"/>
<path fill="#111111" opacity="1.000000" stroke="none" 
	d="
M38.038307,310.143433 
	C38.036358,312.923431 38.036358,315.250458 38.036358,317.909393 
	C36.128819,317.909393 34.396984,317.909393 32.383247,317.909393 
	C32.383247,310.969147 32.383247,304.069427 32.383247,296.866028 
	C36.843884,296.866028 41.302200,296.866028 46.237595,296.866028 
	C45.692421,298.554352 45.252556,299.916534 44.756790,301.451843 
	C37.378792,300.025482 38.255016,305.289062 38.038307,310.143433 
z"/>
<path fill="#111111" opacity="1.000000" stroke="none" 
	d="
M77.869125,311.780426 
	C77.869118,314.048859 77.869118,315.851013 77.869118,317.943787 
	C75.849640,317.943787 74.115250,317.943787 72.173218,317.943787 
	C72.173218,310.895416 72.173218,303.996613 72.173218,296.787354 
	C73.975632,296.787354 75.691704,296.787354 77.869125,296.787354 
	C77.869125,301.785797 77.869125,306.549988 77.869125,311.780426 
z"/>
<path fill="#2C2C2C" opacity="1.000000" stroke="none" 
	d="
M77.934105,290.053894 
	C78.239059,295.233185 74.928452,293.426208 72.227188,293.675018 
	C72.093292,291.875793 71.976799,290.310425 71.760445,287.403076 
	C74.281174,288.315155 76.101463,288.973755 77.934105,290.053894 
z"/>
<path fill="#7D7D7D" opacity="1.000000" stroke="none" 
	d="
M553.719727,326.354919 
	C555.220337,326.186035 556.659058,326.107422 558.529419,325.999451 
	C558.961060,325.970123 559.228638,326.331940 559.200928,326.555267 
	C557.668152,326.777893 556.163025,326.777222 554.210938,326.706604 
	C553.763916,326.636658 553.657959,326.445190 553.719727,326.354919 
z"/>
<path fill="#EDEDED" opacity="1.000000" stroke="none" 
	d="
M97.178101,303.157227 
	C97.506371,304.153137 98.000931,304.888824 97.826431,305.392883 
	C96.922585,308.003601 96.091080,310.706238 94.655846,313.017578 
	C94.311180,313.572693 90.697083,313.189484 90.418983,312.499390 
	C89.380119,309.921387 88.298668,306.908447 88.715950,304.295410 
	C89.452881,299.680786 93.029343,299.210846 97.178101,303.157227 
z"/>
<path fill="#FEF6F4" opacity="1.000000" stroke="none" 
	d="
M38.785027,200.165985 
	C40.894642,206.669586 42.880081,212.798203 45.009563,219.371460 
	C37.947742,219.371460 31.391092,219.371460 24.130852,219.371460 
	C27.516207,208.984940 30.834618,198.803802 34.482212,187.612717 
	C36.101295,192.331406 37.381073,196.061218 38.785027,200.165985 
z"/>
<path fill="#FEF4F1" opacity="1.000000" stroke="none" 
	d="
M424.558197,258.739746 
	C420.980499,257.252472 419.326141,254.926498 420.581543,251.499329 
	C421.784210,248.216080 423.837219,245.704803 427.943970,246.077835 
	C431.248474,246.378021 434.708008,246.022644 437.829407,246.907867 
	C439.826019,247.474091 442.636108,249.687820 442.735962,251.307556 
	C442.867035,253.433868 441.061005,257.223846 439.434052,257.621307 
	C434.778564,258.758667 429.792755,258.544037 424.558197,258.739746 
z"/>
<path fill="#FEF6F4" opacity="1.000000" stroke="none" 
	d="
M436.503174,203.210785 
	C441.537872,209.397217 440.105469,217.213318 433.881714,218.790512 
	C430.191711,219.725601 425.874756,219.673325 424.185669,215.970291 
	C422.853851,213.050522 422.780121,208.914322 423.702301,205.775101 
	C424.801544,202.033035 428.737335,201.369980 432.433014,201.817413 
	C433.709991,201.972000 434.932434,202.577103 436.503174,203.210785 
z"/>
<path fill="#FEF9F7" opacity="1.000000" stroke="none" 
	d="
M154.310516,235.782471 
	C148.223648,228.917511 147.288574,215.054688 152.170914,207.940735 
	C154.621674,204.369812 158.033783,203.136215 162.189240,204.135330 
	C166.360535,205.138260 171.600266,210.461746 171.735626,214.002762 
	C171.900879,218.326111 172.022339,222.678177 171.717834,226.986374 
	C171.208084,234.198196 161.873978,239.012100 154.310516,235.782471 
z"/>
<path fill="#FEFAF8" opacity="1.000000" stroke="none" 
	d="
M360.025146,220.966522 
	C360.593384,217.089828 360.720581,213.514709 361.834747,210.279480 
	C363.585693,205.195282 367.695038,202.844254 373.123383,202.959717 
	C378.479309,203.073624 382.883698,205.666412 383.729462,211.029785 
	C384.667023,216.975052 384.755646,223.272964 383.886322,229.223358 
	C383.002899,235.270111 378.372040,238.095917 372.318146,238.042587 
	C366.261322,237.989243 362.578644,235.094971 361.015656,228.816452 
	C360.418518,226.417740 360.341034,223.889648 360.025146,220.966522 
z"/>
<path fill="#FEFAF8" opacity="1.000000" stroke="none" 
	d="
M101.157204,238.752090 
	C98.639404,238.898392 96.078186,239.670471 94.503868,238.751633 
	C92.532616,237.601135 90.638901,235.265610 90.030304,233.075226 
	C89.079826,229.654388 91.022980,226.647263 94.459511,225.851883 
	C98.700829,224.870239 103.136765,224.729477 107.404091,224.235153 
	C109.171852,233.104004 108.600510,234.392426 101.157204,238.752090 
z"/>
<path fill="#E5E5E5" opacity="1.000000" stroke="none" 
	d="
M413.845520,311.296082 
	C411.341064,314.588104 408.163025,315.383087 405.623840,312.195343 
	C403.254944,309.221436 405.380798,306.783508 408.458832,304.481354 
	C410.307068,306.740692 412.023590,308.838989 413.845520,311.296082 
z"/>
<path fill="#D2D2D2" opacity="1.000000" stroke="none" 
	d="
M410.393127,297.530792 
	C409.643311,295.791870 409.209930,294.243683 408.776550,292.695526 
	C409.984436,292.464508 411.239929,291.934723 412.381958,292.116821 
	C413.045441,292.222626 414.148163,293.902222 413.987152,294.134460 
	C413.072601,295.453552 411.836395,296.549622 410.393127,297.530792 
z"/>
<path fill="#EDEDED" opacity="1.000000" stroke="none" 
	d="
M306.749207,313.253296 
	C306.005493,309.830811 305.187866,306.657623 305.359772,303.539001 
	C305.419769,302.451233 307.917938,300.713287 309.309937,300.706207 
	C310.677551,300.699219 313.048767,302.363434 313.227875,303.557068 
	C313.648468,306.359711 313.519440,309.499634 312.567413,312.123749 
	C312.204437,313.124298 308.983002,313.087891 306.749207,313.253296 
z"/>
<path fill="#EDEDED" opacity="1.000000" stroke="none" 
	d="
M568.713623,307.846710 
	C568.338623,311.468781 567.440674,314.541870 563.401001,313.932770 
	C559.329590,313.318939 559.060913,309.780609 559.126648,306.555634 
	C559.188049,303.537476 560.137329,300.670746 563.840454,300.717560 
	C568.169556,300.772339 568.567810,304.122681 568.713623,307.846710 
z"/>
<path fill="#E5E5E5" opacity="1.000000" stroke="none" 
	d="
M491.378052,308.329529 
	C491.872375,309.924896 492.652649,312.153625 491.867065,313.159851 
	C491.118256,314.119019 488.736389,313.803375 487.072479,314.048157 
	C487.111328,312.560394 486.687134,310.804443 487.342133,309.673523 
	C487.826630,308.836914 489.716125,308.814026 491.378052,308.329529 
z"/>
<path fill="#EFEFEF" opacity="1.000000" stroke="none" 
	d="
M583.979736,309.519165 
	C583.856567,308.616974 583.782593,308.123108 583.786804,307.629944 
	C583.813965,304.451569 584.445923,301.281433 588.173645,301.025696 
	C589.879944,300.908600 593.101746,302.509399 593.225037,303.602966 
	C593.562561,306.596954 593.479492,310.275574 591.967224,312.679108 
	C590.091187,315.660828 586.560303,314.215546 583.979736,309.519165 
z"/>
<path fill="#E5E5E5" opacity="1.000000" stroke="none" 
	d="
M271.330597,312.965271 
	C269.306427,313.475403 267.532104,313.835419 265.773071,313.771973 
	C265.410034,313.758820 264.621185,311.593781 264.851746,311.400024 
	C266.126984,310.328247 267.624054,309.496887 269.114105,308.714600 
	C269.813690,308.347260 270.667969,308.274536 272.251312,307.858124 
	C271.993073,309.723480 271.789490,311.194305 271.330597,312.965271 
z"/>
<path fill="#D2D2D2" opacity="1.000000" stroke="none" 
	d="
M645.426147,305.643890 
	C643.254456,305.649445 641.468689,305.649445 639.682983,305.649445 
	C639.408936,305.182892 639.134888,304.716370 638.860840,304.249817 
	C640.193665,302.977448 641.369507,300.997772 642.908813,300.656219 
	C644.143494,300.382263 645.861450,302.037994 647.219238,303.035645 
	C647.328613,303.115997 646.307739,304.734589 645.426147,305.643890 
z"/>
<path fill="#EFEFEF" opacity="1.000000" stroke="none" 
	d="
M200.918930,305.423065 
	C201.006409,306.488678 201.298447,307.335388 200.997253,307.782227 
	C199.563431,309.909515 198.308563,312.524536 196.262955,313.691528 
	C195.445328,314.157928 191.388916,311.499939 191.219299,309.992676 
	C190.911255,307.255585 191.507889,303.206116 193.353577,301.706818 
	C196.516571,299.137390 199.527756,301.144958 200.918930,305.423065 
z"/>
<path fill="#D2D2D2" opacity="1.000000" stroke="none" 
	d="
M330.070801,303.431152 
	C331.772125,302.208649 333.459229,300.604279 334.967194,300.757935 
	C336.322388,300.896088 337.480835,302.964752 338.726105,304.181824 
	C338.352295,304.864929 337.978485,305.548035 337.604675,306.231140 
	C335.062622,305.425659 332.520599,304.620148 330.070801,303.431152 
z"/>
<path fill="#D2D2D2" opacity="1.000000" stroke="none" 
	d="
M53.248596,303.507690 
	C54.934715,302.226501 56.563896,300.536743 58.062790,300.645355 
	C59.439724,300.745087 60.676296,302.782043 61.653111,304.484955 
	C58.527702,305.079224 55.518978,307.692596 53.248596,303.507690 
z"/>
</svg>